<svg data-v-fde0c5aa="" xmlns="http://www.w3.org/2000/svg" viewBox="0 0 300 300" class="iconLeftSlogan"><!----><defs data-v-fde0c5aa=""><!----></defs><rect data-v-fde0c5aa="" fill="#E0EAEF" x="0" y="0" width="300px" height="300px" class="logo-background-square"></rect><defs data-v-fde0c5aa=""><!----></defs><g data-v-fde0c5aa="" id="ae5332f1-3025-4433-b2aa-cb85bbb319b2" fill="#012F41" transform="matrix(1.4298404639823634,0,0,1.4298404639823634,84.90173808977782,125.93751966399044)"><path d="M8.69 4.19L8.69 4.19Q8.72 4.19 8.72 4.27L8.72 4.27L8.72 4.27Q8.72 4.35 8.69 4.35L8.69 4.35L8.69 4.35Q8.23 4.35 7.64 4.84L7.64 4.84L7.64 4.84Q7.06 5.32 6.59 6.08L6.59 6.08L5.00 8.67L5.00 11.80L5.00 11.80Q5.00 12.24 5.08 12.43L5.08 12.43L5.08 12.43Q5.15 12.63 5.37 12.70L5.37 12.70L5.37 12.70Q5.59 12.77 6.06 12.77L6.06 12.77L6.06 12.77Q6.10 12.77 6.10 12.85L6.10 12.85L6.10 12.85Q6.10 12.94 6.06 12.94L6.06 12.94L6.06 12.94Q5.60 12.94 5.35 12.92L5.35 12.92L4.33 12.91L3.32 12.92L3.32 12.92Q3.04 12.94 2.58 12.94L2.58 12.94L2.58 12.94Q2.55 12.94 2.55 12.85L2.55 12.85L2.55 12.85Q2.55 12.77 2.58 12.77L2.58 12.77L2.58 12.77Q3.05 12.77 3.27 12.70L3.27 12.70L3.27 12.70Q3.49 12.63 3.57 12.43L3.57 12.43L3.57 12.43Q3.65 12.22 3.65 11.80L3.65 11.80L3.65 8.92L1.53 5.67L1.53 5.67Q1.05 4.93 0.71 4.64L0.71 4.64L0.71 4.64Q0.36 4.35 0.04 4.35L0.04 4.35L0.04 4.35Q0 4.35 0 4.27L0 4.27L0 4.27Q0 4.19 0.04 4.19L0.04 4.19L0.50 4.20L0.50 4.20Q0.81 4.23 0.95 4.23L0.95 4.23L0.95 4.23Q1.43 4.23 2.30 4.20L2.30 4.20L3.16 4.19L3.16 4.19Q3.19 4.19 3.19 4.27L3.19 4.27L3.19 4.27Q3.19 4.35 3.16 4.35L3.16 4.35L3.16 4.35Q2.59 4.35 2.59 4.75L2.59 4.75L2.59 4.75Q2.59 4.94 2.76 5.19L2.76 5.19L4.79 8.32L6.22 5.98L6.22 5.98Q6.57 5.40 6.57 4.97L6.57 4.97L6.57 4.97Q6.57 4.35 5.80 4.35L5.80 4.35L5.80 4.35Q5.77 4.35 5.77 4.27L5.77 4.27L5.77 4.27Q5.77 4.19 5.80 4.19L5.80 4.19L6.52 4.20L6.52 4.20Q7.11 4.23 7.60 4.23L7.60 4.23L7.60 4.23Q7.84 4.23 8.18 4.20L8.18 4.20L8.69 4.19ZM11.91 13.12L11.91 13.12Q11.07 13.12 10.43 12.72L10.43 12.72L10.43 12.72Q9.79 12.32 9.44 11.64L9.44 11.64L9.44 11.64Q9.09 10.96 9.09 10.16L9.09 10.16L9.09 10.16Q9.09 9.25 9.54 8.62L9.54 8.62L9.54 8.62Q10.00 7.98 10.70 7.67L10.70 7.67L10.70 7.67Q11.41 7.35 12.15 7.35L12.15 7.35L12.15 7.35Q13.01 7.35 13.64 7.76L13.64 7.76L13.64 7.76Q14.28 8.16 14.62 8.83L14.62 8.83L14.62 8.83Q14.95 9.49 14.95 10.25L14.95 10.25L14.95 10.25Q14.95 11.09 14.54 11.75L14.54 11.75L14.54 11.75Q14.13 12.40 13.43 12.76L13.43 12.76L13.43 12.76Q12.73 13.12 11.91 13.12L11.91 13.12ZM12.33 12.84L12.33 12.84Q12.95 12.84 13.28 12.29L13.28 12.29L13.28 12.29Q13.61 11.75 13.61 10.70L13.61 10.70L13.61 10.70Q13.61 9.76 13.35 9.06L13.35 9.06L13.35 9.06Q13.09 8.36 12.65 7.99L12.65 7.99L12.65 7.99Q12.21 7.63 11.69 7.63L11.69 7.63L11.69 7.63Q11.06 7.63 10.74 8.15L10.74 8.15L10.74 8.15Q10.42 8.67 10.42 9.67L10.42 9.67L10.42 9.67Q10.42 10.58 10.66 11.30L10.66 11.30L10.66 11.30Q10.91 12.03 11.35 12.43L11.35 12.43L11.35 12.43Q11.79 12.84 12.33 12.84L12.33 12.84ZM18.86 12.38L18.86 12.38Q19.74 12.52 20.23 12.65L20.23 12.65L20.23 12.65Q20.72 12.78 21.09 13.12L21.09 13.12L21.09 13.12Q21.46 13.45 21.46 14.07L21.46 14.07L21.46 14.07Q21.46 14.78 20.98 15.44L20.98 15.44L20.98 15.44Q20.50 16.09 19.68 16.48L19.68 16.48L19.68 16.48Q18.87 16.88 17.93 16.88L17.93 16.88L17.93 16.88Q16.91 16.88 16.27 16.43L16.27 16.43L16.27 16.43Q15.62 15.97 15.62 15.25L15.62 15.25L15.62 15.25Q15.62 14.74 15.97 14.22L15.97 14.22L15.97 14.22Q16.31 13.71 17.14 13.13L17.14 13.13L17.14 13.13Q16.23 12.87 16.23 12.14L16.23 12.14L16.23 12.14Q16.23 11.77 16.50 11.40L16.50 11.40L16.50 11.40Q16.77 11.03 17.29 10.72L17.29 10.72L17.29 10.72Q16.72 10.51 16.39 10.09L16.39 10.09L16.39 10.09Q16.07 9.66 16.07 9.16L16.07 9.16L16.07 9.16Q16.07 8.62 16.41 8.23L16.41 8.23L16.41 8.23Q16.76 7.84 17.29 7.64L17.29 7.64L17.29 7.64Q17.82 7.43 18.40 7.43L18.40 7.43L18.40 7.43Q19.32 7.43 19.91 7.88L19.91 7.88L19.91 7.88Q20.29 7.64 20.65 7.52L20.65 7.52L20.65 7.52Q21.01 7.41 21.43 7.41L21.43 7.41L21.43 7.41Q21.53 7.41 21.53 7.77L21.53 7.77L21.53 7.77Q21.53 7.97 21.48 8.18L21.48 8.18L21.48 8.18Q21.43 8.39 21.38 8.34L21.38 8.34L21.38 8.34Q20.79 8.12 20.37 8.12L20.37 8.12L20.37 8.12Q20.24 8.12 20.17 8.13L20.17 8.13L20.17 8.13Q20.55 8.55 20.55 9.11L20.55 9.11L20.55 9.11Q20.55 9.62 20.22 10.02L20.22 10.02L20.22 10.02Q19.89 10.42 19.36 10.64L19.36 10.64L19.36 10.64Q18.83 10.86 18.23 10.86L18.23 10.86L18.23 10.86Q17.84 10.86 17.51 10.78L17.51 10.78L17.51 10.78Q17.15 11.06 17.15 11.45L17.15 11.45L17.15 11.45Q17.15 11.89 17.57 12.06L17.57 12.06L17.57 12.06Q17.99 12.24 18.86 12.38L18.86 12.38ZM17.98 7.69L17.98 7.69Q17.64 7.69 17.45 7.97L17.45 7.97L17.45 7.97Q17.26 8.26 17.26 8.81L17.26 8.81L17.26 8.81Q17.26 9.56 17.64 10.09L17.64 10.09L17.64 10.09Q18.02 10.63 18.58 10.63L18.58 10.63L18.58 10.63Q18.90 10.63 19.12 10.33L19.12 10.33L19.12 10.33Q19.35 10.04 19.35 9.42L19.35 9.42L19.35 9.42Q19.35 8.68 18.94 8.18L18.94 8.18L18.94 8.18Q18.54 7.69 17.98 7.69L17.98 7.69ZM18.62 16.45L18.62 16.45Q19.45 16.45 19.94 15.99L19.94 15.99L19.94 15.99Q20.44 15.53 20.44 14.80L20.44 14.80L20.44 14.80Q20.44 14.27 20.13 13.97L20.13 13.97L20.13 13.97Q19.81 13.68 19.36 13.56L19.36 13.56L19.36 13.56Q18.90 13.44 18.14 13.34L18.14 13.34L18.14 13.34Q18.03 13.33 17.82 13.29L17.82 13.29L17.82 13.29Q17.60 13.26 17.44 13.22L17.44 13.22L17.44 13.22Q17.15 13.48 16.99 13.81L16.99 13.81L16.99 13.81Q16.83 14.14 16.83 14.64L16.83 14.64L16.83 14.64Q16.83 15.50 17.32 15.97L17.32 15.97L17.32 15.97Q17.81 16.45 18.62 16.45L18.62 16.45ZM27.48 12.18L27.51 12.18L27.51 12.18Q27.57 12.18 27.58 12.24L27.58 12.24L27.58 12.24Q27.59 12.31 27.54 12.33L27.54 12.33L26.10 13.02L26.10 13.02Q26.04 13.05 25.97 13.05L25.97 13.05L25.97 13.05Q25.77 13.05 25.59 12.82L25.59 12.82L25.59 12.82Q25.41 12.60 25.34 12.22L25.34 12.22L24.61 12.61L24.61 12.61Q23.80 13.03 23.23 13.03L23.23 13.03L23.23 13.03Q22.78 13.03 22.53 12.80L22.53 12.80L22.53 12.80Q22.29 12.57 22.29 12.17L22.29 12.17L22.29 12.17Q22.29 11.73 22.60 11.52L22.60 11.52L22.60 11.52Q22.90 11.30 23.77 11.00L23.77 11.00L25.30 10.49L25.30 9.37L25.30 9.37Q25.30 8.51 25.10 8.11L25.10 8.11L25.10 8.11Q24.91 7.71 24.51 7.71L24.51 7.71L24.51 7.71Q23.76 7.71 23.65 8.82L23.65 8.82L23.65 8.82Q23.58 9.52 22.93 9.52L22.93 9.52L22.93 9.52Q22.33 9.52 22.33 9.00L22.33 9.00L22.33 9.00Q22.33 8.64 22.79 8.27L22.79 8.27L22.79 8.27Q23.24 7.90 23.88 7.65L23.88 7.65L23.88 7.65Q24.53 7.41 25.03 7.41L25.03 7.41L25.03 7.41Q25.66 7.41 26.05 7.79L26.05 7.79L26.05 7.79Q26.43 8.18 26.43 8.95L26.43 8.95L26.43 11.42L26.43 11.42Q26.43 11.86 26.57 12.08L26.57 12.08L26.57 12.08Q26.71 12.31 26.98 12.31L26.98 12.31L26.98 12.31Q27.19 12.31 27.48 12.18L27.48 12.18ZM24.89 12.22L25.31 12.00L25.31 12.00Q25.30 11.94 25.30 11.79L25.30 11.79L25.30 10.71L24.30 11.07L24.30 11.07Q23.94 11.21 23.79 11.38L23.79 11.38L23.79 11.38Q23.63 11.54 23.63 11.77L23.63 11.77L23.63 11.77Q23.63 12.07 23.80 12.24L23.80 12.24L23.80 12.24Q23.97 12.40 24.23 12.40L24.23 12.40L24.23 12.40Q24.53 12.40 24.89 12.22L24.89 12.22ZM36.68 4.03L36.68 4.03Q37.31 4.03 37.99 4.14L37.99 4.14L37.99 4.14Q38.67 4.26 39.06 4.45L39.06 4.45L39.06 4.45Q39.19 4.49 39.22 4.56L39.22 4.56L39.22 4.56Q39.26 4.62 39.27 4.77L39.27 4.77L39.44 6.59L39.44 6.59Q39.44 6.64 39.37 6.65L39.37 6.65L39.37 6.65Q39.30 6.66 39.28 6.61L39.28 6.61L39.28 6.61Q38.88 5.52 38.06 4.94L38.06 4.94L38.06 4.94Q37.24 4.37 36.13 4.37L36.13 4.37L36.13 4.37Q34.68 4.37 33.85 5.39L33.85 5.39L33.85 5.39Q33.03 6.41 33.03 8.13L33.03 8.13L33.03 8.13Q33.03 9.42 33.48 10.50L33.48 10.50L33.48 10.50Q33.94 11.58 34.74 12.21L34.74 12.21L34.74 12.21Q35.55 12.84 36.54 12.84L36.54 12.84L36.54 12.84Q38.43 12.84 39.41 10.49L39.41 10.49L39.41 10.49Q39.42 10.43 39.50 10.44L39.50 10.44L39.50 10.44Q39.58 10.46 39.58 10.50L39.58 10.50L39.37 12.29L39.37 12.29Q39.34 12.46 39.30 12.51L39.30 12.51L39.30 12.51Q39.27 12.56 39.14 12.61L39.14 12.61L39.14 12.61Q37.93 13.10 36.55 13.10L36.55 13.10L36.55 13.10Q34.85 13.10 33.71 12.43L33.71 12.43L33.71 12.43Q32.58 11.75 32.04 10.70L32.04 10.70L32.04 10.70Q31.50 9.65 31.50 8.51L31.50 8.51L31.50 8.51Q31.50 7.20 32.22 6.17L32.22 6.17L32.22 6.17Q32.94 5.15 34.13 4.59L34.13 4.59L34.13 4.59Q35.32 4.03 36.68 4.03L36.68 4.03ZM40.70 12.94L40.70 12.94Q40.66 12.94 40.66 12.85L40.66 12.85L40.66 12.85Q40.66 12.77 40.70 12.77L40.70 12.77L40.70 12.77Q41.16 12.77 41.33 12.56L41.33 12.56L41.33 12.56Q41.50 12.36 41.50 11.80L41.50 11.80L41.50 4.65L41.50 4.65Q41.50 4.16 41.41 3.94L41.41 3.94L41.41 3.94Q41.31 3.72 41.08 3.72L41.08 3.72L41.08 3.72Q40.87 3.72 40.52 3.89L40.52 3.89L40.50 3.89L40.50 3.89Q40.45 3.89 40.42 3.82L40.42 3.82L40.42 3.82Q40.39 3.75 40.42 3.72L40.42 3.72L42.39 2.80L42.45 2.79L42.45 2.79Q42.50 2.79 42.58 2.84L42.58 2.84L42.58 2.84Q42.66 2.90 42.66 2.94L42.66 2.94L42.66 11.80L42.66 11.80Q42.66 12.38 42.81 12.57L42.81 12.57L42.81 12.57Q42.97 12.77 43.44 12.77L43.44 12.77L43.44 12.77Q43.48 12.77 43.48 12.85L43.48 12.85L43.48 12.85Q43.48 12.94 43.44 12.94L43.44 12.94L43.44 12.94Q43.11 12.94 42.90 12.92L42.90 12.92L42.07 12.91L41.26 12.92L41.26 12.92Q41.05 12.94 40.70 12.94L40.70 12.94ZM50.79 12.07L50.82 12.05L50.82 12.05Q50.86 12.05 50.89 12.12L50.89 12.12L50.89 12.12Q50.92 12.19 50.88 12.22L50.88 12.22L49.04 13.10L48.99 13.12L48.99 13.12Q48.85 13.12 48.73 12.80L48.73 12.80L48.73 12.80Q48.62 12.49 48.61 11.96L48.61 11.96L48.61 11.96Q47.63 13.09 46.54 13.09L46.54 13.09L46.54 13.09Q45.78 13.09 45.36 12.62L45.36 12.62L45.36 12.62Q44.94 12.15 44.94 11.34L44.94 11.34L44.94 9.25L44.94 9.25Q44.94 8.30 44.51 8.30L44.51 8.30L44.51 8.30Q44.37 8.30 44.11 8.41L44.11 8.41L44.10 8.41L44.10 8.41Q44.04 8.41 44.02 8.34L44.02 8.34L44.02 8.34Q43.99 8.27 44.03 8.25L44.03 8.25L45.81 7.42L45.86 7.41L45.86 7.41Q45.92 7.41 45.99 7.46L45.99 7.46L45.99 7.46Q46.06 7.52 46.06 7.56L46.06 7.56L46.06 10.74L46.06 10.74Q46.06 12.29 47.24 12.29L47.24 12.29L47.24 12.29Q47.59 12.29 47.95 12.12L47.95 12.12L47.95 12.12Q48.31 11.96 48.61 11.66L48.61 11.66L48.61 9.25L48.61 9.25Q48.61 8.76 48.50 8.53L48.50 8.53L48.50 8.53Q48.40 8.30 48.17 8.30L48.17 8.30L48.17 8.30Q48.05 8.30 47.78 8.41L47.78 8.41L47.77 8.41L47.77 8.41Q47.71 8.41 47.68 8.34L47.68 8.34L47.68 8.34Q47.66 8.26 47.71 8.25L47.71 8.25L49.48 7.42L49.48 7.42Q49.50 7.41 49.55 7.41L49.55 7.41L49.55 7.41Q49.60 7.41 49.67 7.46L49.67 7.46L49.67 7.46Q49.74 7.52 49.74 7.56L49.74 7.56L49.74 11.35L49.74 11.35Q49.74 11.84 49.84 12.04L49.84 12.04L49.84 12.04Q49.94 12.24 50.16 12.24L50.16 12.24L50.16 12.24Q50.33 12.24 50.79 12.07L50.79 12.07ZM55.33 7.35L55.33 7.35Q55.94 7.35 56.47 7.64L56.47 7.64L56.47 7.64Q56.99 7.94 57.31 8.53L57.31 8.53L57.31 8.53Q57.62 9.11 57.62 9.95L57.62 9.95L57.62 9.95Q57.62 10.96 57.20 11.68L57.20 11.68L57.20 11.68Q56.77 12.39 56.07 12.75L56.07 12.75L56.07 12.75Q55.37 13.12 54.59 13.12L54.59 13.12L54.59 13.12Q53.49 13.12 52.63 12.47L52.63 12.47L51.44 13.02L51.41 13.02L51.41 13.02Q51.35 13.02 51.34 12.97L51.34 12.97L51.34 12.97Q51.32 12.92 51.37 12.89L51.37 12.89L51.37 12.89Q51.74 12.66 51.92 12.34L51.92 12.34L51.92 12.34Q52.09 12.03 52.09 11.49L52.09 11.49L52.09 4.65L52.09 4.65Q52.09 4.16 52.00 3.94L52.00 3.94L52.00 3.94Q51.90 3.72 51.66 3.72L51.66 3.72L51.66 3.72Q51.49 3.72 51.11 3.89L51.11 3.89L51.10 3.89L51.10 3.89Q51.04 3.89 51.02 3.82L51.02 3.82L51.02 3.82Q50.99 3.75 51.02 3.72L51.02 3.72L52.96 2.80L53.03 2.79L53.03 2.79Q53.09 2.79 53.16 2.84L53.16 2.84L53.16 2.84Q53.23 2.90 53.23 2.94L53.23 2.94L53.23 8.39L53.23 8.39Q53.69 7.91 54.19 7.63L54.19 7.63L54.19 7.63Q54.70 7.35 55.33 7.35L55.33 7.35ZM54.95 12.84L54.95 12.84Q55.64 12.84 56 12.22L56 12.22L56 12.22Q56.36 11.61 56.36 10.47L56.36 10.47L56.36 10.47Q56.36 9.24 55.92 8.62L55.92 8.62L55.92 8.62Q55.48 7.99 54.74 7.99L54.74 7.99L54.74 7.99Q54.03 7.99 53.23 8.64L53.23 8.64L53.23 10.78L53.23 10.78Q53.23 11.51 53.50 11.97L53.50 11.97L53.50 11.97Q53.77 12.43 54.17 12.63L54.17 12.63L54.17 12.63Q54.57 12.84 54.95 12.84L54.95 12.84ZM59.67 8.26L59.67 8.26Q59.67 8.69 59.97 8.99L59.97 8.99L59.97 8.99Q60.27 9.28 60.84 9.60L60.84 9.60L60.84 9.60Q61.35 9.88 61.62 10.07L61.62 10.07L61.62 10.07Q61.89 10.25 62.10 10.56L62.10 10.56L62.10 10.56Q62.30 10.86 62.30 11.30L62.30 11.30L62.30 11.30Q62.30 11.77 62.06 12.18L62.06 12.18L62.06 12.18Q61.82 12.59 61.36 12.84L61.36 12.84L61.36 12.84Q60.89 13.09 60.24 13.09L60.24 13.09L60.24 13.09Q59.47 13.09 58.83 12.70L58.83 12.70L58.83 12.70Q58.74 12.61 58.74 12.53L58.74 12.53L58.72 11.24L58.72 11.24Q58.72 11.20 58.79 11.19L58.79 11.19L58.79 11.19Q58.87 11.19 58.88 11.21L58.88 11.21L58.88 11.21Q59.12 11.91 59.61 12.36L59.61 12.36L59.61 12.36Q60.09 12.81 60.63 12.81L60.63 12.81L60.63 12.81Q60.98 12.81 61.18 12.63L61.18 12.63L61.18 12.63Q61.38 12.45 61.38 12.08L61.38 12.08L61.38 12.08Q61.38 11.55 61.07 11.23L61.07 11.23L61.07 11.23Q60.76 10.92 60.17 10.61L60.17 10.61L60.17 10.61Q59.70 10.36 59.43 10.19L59.43 10.19L59.43 10.19Q59.16 10.01 58.98 9.71L58.98 9.71L58.98 9.71Q58.79 9.41 58.79 8.96L58.79 8.96L58.79 8.96Q58.79 8.16 59.37 7.77L59.37 7.77L59.37 7.77Q59.95 7.38 60.77 7.38L60.77 7.38L60.77 7.38Q61.32 7.38 61.89 7.59L61.89 7.59L61.89 7.59Q62.02 7.64 62.02 7.74L62.02 7.74L62.02 7.74Q62.02 8.06 62.01 8.25L62.01 8.25L61.99 8.92L61.99 8.92Q61.99 8.96 61.91 8.96L61.91 8.96L61.91 8.96Q61.82 8.96 61.82 8.92L61.82 8.92L61.82 8.92Q61.82 8.64 61.60 8.34L61.60 8.34L61.60 8.34Q61.38 8.04 61.03 7.84L61.03 7.84L61.03 7.84Q60.68 7.64 60.31 7.64L60.31 7.64L60.31 7.64Q59.67 7.64 59.67 8.26L59.67 8.26ZM76.12 12.77L76.12 12.77Q76.17 12.78 76.17 12.86L76.17 12.86L76.17 12.86Q76.16 12.94 76.12 12.94L76.12 12.94L74.07 12.94L74.07 12.94Q73.64 12.94 72.55 12.15L72.55 12.15L72.55 12.15Q71.48 13.10 69.82 13.10L69.82 13.10L69.82 13.10Q68.88 13.10 68.25 12.82L68.25 12.82L68.25 12.82Q67.62 12.53 67.31 12.07L67.31 12.07L67.31 12.07Q67.00 11.61 67.00 11.07L67.00 11.07L67.00 11.07Q67.00 10.35 67.48 9.80L67.48 9.80L67.48 9.80Q67.96 9.25 68.88 8.57L68.88 8.57L68.88 8.57Q68.68 8.26 68.46 7.87L68.46 7.87L68.46 7.87Q68.26 7.46 68.16 7.10L68.16 7.10L68.16 7.10Q68.05 6.75 68.05 6.36L68.05 6.36L68.05 6.36Q68.05 5.66 68.37 5.10L68.37 5.10L68.37 5.10Q68.68 4.54 69.27 4.21L69.27 4.21L69.27 4.21Q69.85 3.89 70.62 3.89L70.62 3.89L70.62 3.89Q71.43 3.89 71.92 4.25L71.92 4.25L71.92 4.25Q72.42 4.61 72.42 5.29L72.42 5.29L72.42 5.29Q72.42 5.85 72.11 6.31L72.11 6.31L72.11 6.31Q71.79 6.76 71.37 7.08L71.37 7.08L71.37 7.08Q70.95 7.39 70.11 7.95L70.11 7.95L70.11 7.95Q71.15 9.52 73.01 10.96L73.01 10.96L73.01 10.96Q73.23 10.39 73.23 9.59L73.23 9.59L73.23 9.59Q73.23 8.88 72.99 8.55L72.99 8.55L72.99 8.55Q72.74 8.22 72.14 8.22L72.14 8.22L72.14 8.22Q72.11 8.22 72.11 8.13L72.11 8.13L72.11 8.13Q72.10 8.05 72.14 8.05L72.14 8.05L75.35 8.04L75.35 8.04Q75.39 8.04 75.39 8.12L75.39 8.12L75.39 8.12Q75.39 8.20 75.35 8.20L75.35 8.20L75.35 8.20Q74.91 8.20 74.69 8.29L74.69 8.29L74.69 8.29Q74.47 8.39 74.37 8.57L74.37 8.57L74.37 8.57Q74.27 8.76 74.16 9.18L74.16 9.18L74.16 9.18Q73.79 10.44 73.32 11.20L73.32 11.20L73.32 11.20Q74.20 11.86 74.93 12.26L74.93 12.26L74.93 12.26Q75.67 12.67 76.12 12.77L76.12 12.77ZM69.20 5.36L69.20 5.36Q69.20 6.44 69.97 7.71L69.97 7.71L69.97 7.71Q70.53 7.22 70.84 6.71L70.84 6.71L70.84 6.71Q71.15 6.19 71.15 5.56L71.15 5.56L71.15 5.56Q71.15 4.94 70.85 4.59L70.85 4.59L70.85 4.59Q70.55 4.24 70.06 4.24L70.06 4.24L70.06 4.24Q69.20 4.24 69.20 5.36L69.20 5.36ZM70.74 12.50L70.74 12.50Q71.68 12.50 72.32 11.97L72.32 11.97L72.32 11.97Q72.04 11.76 71.83 11.59L71.83 11.59L71.83 11.59Q71.06 10.98 70.32 10.24L70.32 10.24L70.32 10.24Q69.58 9.51 69.03 8.78L69.03 8.78L69.03 8.78Q68.24 9.51 68.24 10.37L68.24 10.37L68.24 10.37Q68.24 10.93 68.54 11.42L68.54 11.42L68.54 11.42Q68.85 11.91 69.43 12.21L69.43 12.21L69.43 12.21Q70 12.50 70.74 12.50L70.74 12.50ZM85.18 4.03L85.18 4.03Q85.81 4.03 86.48 4.14L86.48 4.14L86.48 4.14Q87.16 4.26 87.56 4.45L87.56 4.45L87.56 4.45Q87.68 4.49 87.72 4.56L87.72 4.56L87.72 4.56Q87.75 4.62 87.77 4.77L87.77 4.77L87.93 6.59L87.93 6.59Q87.93 6.64 87.86 6.65L87.86 6.65L87.86 6.65Q87.79 6.66 87.78 6.61L87.78 6.61L87.78 6.61Q87.37 5.52 86.55 4.94L86.55 4.94L86.55 4.94Q85.74 4.37 84.63 4.37L84.63 4.37L84.63 4.37Q83.17 4.37 82.35 5.39L82.35 5.39L82.35 5.39Q81.52 6.41 81.52 8.13L81.52 8.13L81.52 8.13Q81.52 9.42 81.98 10.50L81.98 10.50L81.98 10.50Q82.43 11.58 83.24 12.21L83.24 12.21L83.24 12.21Q84.04 12.84 85.04 12.84L85.04 12.84L85.04 12.84Q86.93 12.84 87.91 10.49L87.91 10.49L87.91 10.49Q87.92 10.43 88.00 10.44L88.00 10.44L88.00 10.44Q88.07 10.46 88.07 10.50L88.07 10.50L87.86 12.29L87.86 12.29Q87.84 12.46 87.80 12.51L87.80 12.51L87.80 12.51Q87.77 12.56 87.64 12.61L87.64 12.61L87.64 12.61Q86.42 13.10 85.05 13.10L85.05 13.10L85.05 13.10Q83.34 13.10 82.21 12.43L82.21 12.43L82.21 12.43Q81.07 11.75 80.53 10.70L80.53 10.70L80.53 10.70Q80.00 9.65 80.00 8.51L80.00 8.51L80.00 8.51Q80.00 7.20 80.72 6.17L80.72 6.17L80.72 6.17Q81.44 5.15 82.63 4.59L82.63 4.59L82.63 4.59Q83.82 4.03 85.18 4.03L85.18 4.03ZM91.97 13.12L91.97 13.12Q91.13 13.12 90.48 12.72L90.48 12.72L90.48 12.72Q89.84 12.32 89.49 11.64L89.49 11.64L89.49 11.64Q89.14 10.96 89.14 10.16L89.14 10.16L89.14 10.16Q89.14 9.25 89.59 8.62L89.59 8.62L89.59 8.62Q90.05 7.98 90.75 7.67L90.75 7.67L90.75 7.67Q91.46 7.35 92.20 7.35L92.20 7.35L92.20 7.35Q93.06 7.35 93.69 7.76L93.69 7.76L93.69 7.76Q94.33 8.16 94.67 8.83L94.67 8.83L94.67 8.83Q95.00 9.49 95.00 10.25L95.00 10.25L95.00 10.25Q95.00 11.09 94.59 11.75L94.59 11.75L94.59 11.75Q94.18 12.40 93.48 12.76L93.48 12.76L93.48 12.76Q92.78 13.12 91.97 13.12L91.97 13.12ZM92.39 12.84L92.39 12.84Q93.00 12.84 93.33 12.29L93.33 12.29L93.33 12.29Q93.66 11.75 93.66 10.70L93.66 10.70L93.66 10.70Q93.66 9.76 93.40 9.06L93.40 9.06L93.40 9.06Q93.14 8.36 92.70 7.99L92.70 7.99L92.70 7.99Q92.26 7.63 91.74 7.63L91.74 7.63L91.74 7.63Q91.11 7.63 90.79 8.15L90.79 8.15L90.79 8.15Q90.47 8.67 90.47 9.67L90.47 9.67L90.47 9.67Q90.47 10.58 90.71 11.30L90.71 11.30L90.71 11.30Q90.96 12.03 91.40 12.43L91.40 12.43L91.40 12.43Q91.84 12.84 92.39 12.84L92.39 12.84ZM102.38 12.07L102.41 12.05L102.41 12.05Q102.45 12.05 102.48 12.12L102.48 12.12L102.48 12.12Q102.51 12.19 102.47 12.22L102.47 12.22L100.63 13.10L100.58 13.12L100.58 13.12Q100.44 13.12 100.32 12.80L100.32 12.80L100.32 12.80Q100.21 12.49 100.20 11.96L100.20 11.96L100.20 11.96Q99.22 13.09 98.13 13.09L98.13 13.09L98.13 13.09Q97.37 13.09 96.95 12.62L96.95 12.62L96.95 12.62Q96.53 12.15 96.53 11.34L96.53 11.34L96.53 9.25L96.53 9.25Q96.53 8.30 96.10 8.30L96.10 8.30L96.10 8.30Q95.96 8.30 95.70 8.41L95.70 8.41L95.69 8.41L95.69 8.41Q95.63 8.41 95.61 8.34L95.61 8.34L95.61 8.34Q95.58 8.27 95.62 8.25L95.62 8.25L97.40 7.42L97.45 7.41L97.45 7.41Q97.51 7.41 97.58 7.46L97.58 7.46L97.58 7.46Q97.65 7.52 97.65 7.56L97.65 7.56L97.65 10.74L97.65 10.74Q97.65 12.29 98.83 12.29L98.83 12.29L98.83 12.29Q99.18 12.29 99.54 12.12L99.54 12.12L99.54 12.12Q99.90 11.96 100.20 11.66L100.20 11.66L100.20 9.25L100.20 9.25Q100.20 8.76 100.09 8.53L100.09 8.53L100.09 8.53Q99.99 8.30 99.76 8.30L99.76 8.30L99.76 8.30Q99.64 8.30 99.37 8.41L99.37 8.41L99.36 8.41L99.36 8.41Q99.30 8.41 99.27 8.34L99.27 8.34L99.27 8.34Q99.25 8.26 99.30 8.25L99.30 8.25L101.07 7.42L101.07 7.42Q101.09 7.41 101.14 7.41L101.14 7.41L101.14 7.41Q101.19 7.41 101.26 7.46L101.26 7.46L101.26 7.46Q101.33 7.52 101.33 7.56L101.33 7.56L101.33 11.35L101.33 11.35Q101.33 11.84 101.43 12.04L101.43 12.04L101.43 12.04Q101.53 12.24 101.75 12.24L101.75 12.24L101.75 12.24Q101.92 12.24 102.38 12.07L102.38 12.07ZM106.57 7.39L106.57 7.39Q106.89 7.39 107.18 7.60L107.18 7.60L107.18 7.60Q107.48 7.81 107.48 8.11L107.48 8.11L107.48 8.11Q107.48 8.37 107.32 8.54L107.32 8.54L107.32 8.54Q107.16 8.71 106.88 8.71L106.88 8.71L106.88 8.71Q106.69 8.71 106.57 8.63L106.57 8.63L106.57 8.63Q106.46 8.55 106.33 8.41L106.33 8.41L106.33 8.41Q106.20 8.29 106.11 8.22L106.11 8.22L106.11 8.22Q106.01 8.16 105.87 8.16L105.87 8.16L105.87 8.16Q105.71 8.16 105.54 8.28L105.54 8.28L105.54 8.28Q105.36 8.40 105.00 8.78L105.00 8.78L105.00 11.80L105.00 11.80Q105.00 12.19 105.11 12.40L105.11 12.40L105.11 12.40Q105.22 12.60 105.49 12.68L105.49 12.68L105.49 12.68Q105.76 12.77 106.27 12.77L106.27 12.77L106.27 12.77Q106.33 12.77 106.33 12.85L106.33 12.85L106.33 12.85Q106.33 12.94 106.27 12.94L106.27 12.94L106.27 12.94Q105.81 12.94 105.53 12.92L105.53 12.92L104.43 12.91L103.61 12.92L103.61 12.92Q103.42 12.94 103.07 12.94L103.07 12.94L103.07 12.94Q103.03 12.94 103.03 12.85L103.03 12.85L103.03 12.85Q103.03 12.77 103.07 12.77L103.07 12.77L103.07 12.77Q103.54 12.77 103.70 12.57L103.70 12.57L103.70 12.57Q103.85 12.38 103.85 11.80L103.85 11.80L103.85 9.13L103.85 9.13Q103.85 8.68 103.75 8.47L103.75 8.47L103.75 8.47Q103.64 8.26 103.40 8.26L103.40 8.26L103.40 8.26Q103.19 8.26 102.70 8.47L102.70 8.47L102.69 8.47L102.69 8.47Q102.63 8.47 102.61 8.40L102.61 8.40L102.61 8.40Q102.58 8.33 102.62 8.32L102.62 8.32L104.45 7.42L104.45 7.42Q104.54 7.39 104.55 7.39L104.55 7.39L104.55 7.39Q104.69 7.39 104.83 7.69L104.83 7.69L104.83 7.69Q104.97 7.99 105.00 8.48L105.00 8.48L105.00 8.48Q105.55 7.87 105.91 7.63L105.91 7.63L105.91 7.63Q106.27 7.39 106.57 7.39L106.57 7.39ZM109.30 8.26L109.30 8.26Q109.30 8.69 109.60 8.99L109.60 8.99L109.60 8.99Q109.90 9.28 110.47 9.60L110.47 9.60L110.47 9.60Q110.98 9.88 111.25 10.07L111.25 10.07L111.25 10.07Q111.52 10.25 111.73 10.56L111.73 10.56L111.73 10.56Q111.93 10.86 111.93 11.30L111.93 11.30L111.93 11.30Q111.93 11.77 111.69 12.18L111.69 12.18L111.69 12.18Q111.45 12.59 110.98 12.84L110.98 12.84L110.98 12.84Q110.52 13.09 109.87 13.09L109.87 13.09L109.87 13.09Q109.10 13.09 108.46 12.70L108.46 12.70L108.46 12.70Q108.37 12.61 108.37 12.53L108.37 12.53L108.35 11.24L108.35 11.24Q108.35 11.20 108.42 11.19L108.42 11.19L108.42 11.19Q108.50 11.19 108.51 11.21L108.51 11.21L108.51 11.21Q108.75 11.91 109.23 12.36L109.23 12.36L109.23 12.36Q109.72 12.81 110.26 12.81L110.26 12.81L110.26 12.81Q110.61 12.81 110.81 12.63L110.81 12.63L110.81 12.63Q111.01 12.45 111.01 12.08L111.01 12.08L111.01 12.08Q111.01 11.55 110.70 11.23L110.70 11.23L110.70 11.23Q110.39 10.92 109.80 10.61L109.80 10.61L109.80 10.61Q109.33 10.36 109.06 10.19L109.06 10.19L109.06 10.19Q108.79 10.01 108.60 9.71L108.60 9.71L108.60 9.71Q108.42 9.41 108.42 8.96L108.42 8.96L108.42 8.96Q108.42 8.16 109.00 7.77L109.00 7.77L109.00 7.77Q109.58 7.38 110.40 7.38L110.40 7.38L110.40 7.38Q110.95 7.38 111.52 7.59L111.52 7.59L111.52 7.59Q111.65 7.64 111.65 7.74L111.65 7.74L111.65 7.74Q111.65 8.06 111.64 8.25L111.64 8.25L111.62 8.92L111.62 8.92Q111.62 8.96 111.54 8.96L111.54 8.96L111.54 8.96Q111.45 8.96 111.45 8.92L111.45 8.92L111.45 8.92Q111.45 8.64 111.23 8.34L111.23 8.34L111.23 8.34Q111.01 8.04 110.66 7.84L110.66 7.84L110.66 7.84Q110.31 7.64 109.94 7.64L109.94 7.64L109.94 7.64Q109.30 7.64 109.30 8.26L109.30 8.26ZM117.74 12.07L117.77 12.05L117.77 12.05Q117.80 12.05 117.83 12.11L117.83 12.11L117.83 12.11Q117.87 12.17 117.84 12.19L117.84 12.19L117.84 12.19Q117.33 12.67 116.82 12.89L116.82 12.89L116.82 12.89Q116.30 13.10 115.68 13.10L115.68 13.10L115.68 13.10Q114.81 13.10 114.19 12.73L114.19 12.73L114.19 12.73Q113.57 12.36 113.24 11.74L113.24 11.74L113.24 11.74Q112.91 11.12 112.91 10.40L112.91 10.40L112.91 10.40Q112.91 9.58 113.32 8.89L113.32 8.89L113.32 8.89Q113.74 8.20 114.46 7.80L114.46 7.80L114.46 7.80Q115.18 7.41 116.05 7.41L116.05 7.41L116.05 7.41Q116.87 7.41 117.32 7.78L117.32 7.78L117.32 7.78Q117.77 8.15 117.77 8.79L117.77 8.79L117.77 8.79Q117.77 9.17 117.61 9.17L117.61 9.17L116.84 9.17L114.21 9.20L114.21 9.20Q114.17 9.49 114.17 9.83L114.17 9.83L114.17 9.83Q114.17 11.05 114.74 11.77L114.74 11.77L114.74 11.77Q115.30 12.49 116.31 12.49L116.31 12.49L116.31 12.49Q116.68 12.49 117.05 12.38L117.05 12.38L117.05 12.38Q117.43 12.28 117.74 12.07L117.74 12.07ZM115.54 7.69L115.54 7.69Q115.08 7.69 114.74 8.02L114.74 8.02L114.74 8.02Q114.41 8.36 114.27 8.95L114.27 8.95L116.45 8.90L116.45 8.90Q116.42 8.33 116.20 8.01L116.20 8.01L116.20 8.01Q115.98 7.69 115.54 7.69L115.54 7.69ZM119.83 8.26L119.83 8.26Q119.83 8.69 120.13 8.99L120.13 8.99L120.13 8.99Q120.43 9.28 121.00 9.60L121.00 9.60L121.00 9.60Q121.51 9.88 121.78 10.07L121.78 10.07L121.78 10.07Q122.05 10.25 122.25 10.56L122.25 10.56L122.25 10.56Q122.46 10.86 122.46 11.30L122.46 11.30L122.46 11.30Q122.46 11.77 122.22 12.18L122.22 12.18L122.22 12.18Q121.98 12.59 121.51 12.84L121.51 12.84L121.51 12.84Q121.04 13.09 120.40 13.09L120.40 13.09L120.40 13.09Q119.63 13.09 118.99 12.70L118.99 12.70L118.99 12.70Q118.90 12.61 118.90 12.53L118.90 12.53L118.87 11.24L118.87 11.24Q118.87 11.20 118.95 11.19L118.95 11.19L118.95 11.19Q119.03 11.19 119.04 11.21L119.04 11.21L119.04 11.21Q119.28 11.91 119.76 12.36L119.76 12.36L119.76 12.36Q120.25 12.81 120.79 12.81L120.79 12.81L120.79 12.81Q121.14 12.81 121.34 12.63L121.34 12.63L121.34 12.63Q121.53 12.45 121.53 12.08L121.53 12.08L121.53 12.08Q121.53 11.55 121.23 11.23L121.23 11.23L121.23 11.23Q120.92 10.92 120.33 10.61L120.33 10.61L120.33 10.61Q119.85 10.36 119.59 10.19L119.59 10.19L119.59 10.19Q119.32 10.01 119.13 9.71L119.13 9.71L119.13 9.71Q118.94 9.41 118.94 8.96L118.94 8.96L118.94 8.96Q118.94 8.16 119.52 7.77L119.52 7.77L119.52 7.77Q120.11 7.38 120.93 7.38L120.93 7.38L120.93 7.38Q121.48 7.38 122.05 7.59L122.05 7.59L122.05 7.59Q122.18 7.64 122.18 7.74L122.18 7.74L122.18 7.74Q122.18 8.06 122.16 8.25L122.16 8.25L122.15 8.92L122.15 8.92Q122.15 8.96 122.07 8.96L122.07 8.96L122.07 8.96Q121.98 8.96 121.98 8.92L121.98 8.92L121.98 8.92Q121.98 8.64 121.76 8.34L121.76 8.34L121.76 8.34Q121.53 8.04 121.18 7.84L121.18 7.84L121.18 7.84Q120.83 7.64 120.47 7.64L120.47 7.64L120.47 7.64Q119.83 7.64 119.83 8.26L119.83 8.26Z"></path></g><defs data-v-fde0c5aa=""><linearGradient data-v-fde0c5aa="" gradientTransform="rotate(25)" id="0ec5ee7d-5c89-4bc2-8e6f-4916cee1a69e" x1="0%" y1="0%" x2="100%" y2="0%"><stop data-v-fde0c5aa="" offset="0%" stop-color="#08C7D6" stop-opacity="1"></stop><stop data-v-fde0c5aa="" offset="100%" stop-color="#02023E" stop-opacity="1"></stop></linearGradient></defs><g data-v-fde0c5aa="" id="33657eee-1c69-4429-9c2c-baf4e7cd1fc6" stroke="none" fill="url(#0ec5ee7d-5c89-4bc2-8e6f-4916cee1a69e)" transform="matrix(0.5212753249634432,0,0,0.5212753249634432,29.888100033256475,123.93611692700887)"><path clip-rule="evenodd" d="M41.66 73.734c-.271-1.883-.487-3.589-.769-5.285-1.017-6.121-3.609-11.628-6.596-16.994-2.268-4.073-4.688-8.073-6.308-12.479-.722-1.964-1.323-4.025-.943-6.055.256-1.367 1.15-2.712 2.047-3.838a43.62 43.62 0 0 1 4.514-4.825c3.416-3.163 6.928-6.223 10.404-9.32 1.687-1.503 3.381-2.997 5.073-4.494.131-.115.272-.219.587-.22-.334.673-.612 1.379-1.01 2.012-2.709 4.322-6.07 8.118-9.53 11.842-1.766 1.901-3.513 3.834-4.58 6.261-.771 1.752-.701 3.428.146 5.158 2.26 4.607 5.231 8.742 8.36 12.774 1.059 1.364 2.201 2.664 3.473 4.195.302-1.677-.019-2.983-.603-4.244-.514-1.109-1.063-2.201-1.532-3.166-.386-.273-.833-.438-1.031-.758-.593-.956-.28-2.774.455-3.701.192-.242.185-.681.187-1.03.012-1.656.428-3.189 1.511-4.457 1.71-2.002 3.888-2.496 6.352-1.717 2.318.733 3.437 2.505 3.896 4.771.122.603.122 1.229.194 1.844.023.202.029.469.154.587 1.14 1.07.856 2.37.525 3.616-.091.342-.655.559-1.209.995-.364 2.134-2.541 4.079-1.935 7.06.666-.746 1.248-1.354 1.78-2.002 3.598-4.381 6.854-8.985 9.619-13.953 1.647-2.96 1.218-5.614-.709-8.092-1.859-2.392-3.944-4.606-5.917-6.911-2.575-3.01-5.216-5.972-7.179-9.445-.259-.457-.472-.94-.696-1.416-.034-.072-.013-.171-.025-.446 1.125 1.017 2.141 1.933 3.154 2.853 4.125 3.752 8.277 7.475 12.359 11.272 1.791 1.666 3.44 3.484 5.15 5.237 2.113 2.166 2.289 4.753 1.569 7.5-.987 3.766-2.829 7.156-4.688 10.541-2.585 4.709-5.364 9.322-7.182 14.416-1.369 3.836-2.117 7.798-2.521 11.951 1.188-.641 2.288-1.282 3.43-1.839 4.729-2.309 9.749-3.32 14.994-3.206.688.015 1.409.222 2.044.503 1.638.728 2.267 2.325 1.744 4.305-.731 2.77-2.479 4.895-4.522 6.773-2.936 2.7-6.235 4.902-9.952 6.359a47.887 47.887 0 0 1-12.67 3.071c-3.908.398-7.814.413-11.66-.448a39.444 39.444 0 0 1-13.476-5.796c-2.928-1.967-5.674-4.154-7.429-7.28a10.861 10.861 0 0 1-1.278-3.806c-.246-1.868.92-3.226 2.804-3.506a17.46 17.46 0 0 1 3.604-.177c4.808.286 9.383 1.477 13.65 3.753.354.189.687.416 1.034.618.315.184.635.357 1.137.639z"></path></g><defs data-v-fde0c5aa=""><!----></defs><g data-v-fde0c5aa="" id="755e4b8e-cd8c-4e46-ac1a-8cf2303d62c0" fill="#012F41" transform="matrix(0.4319254436053907,0,0,0.4319254436053907,84.11131450944373,158.5571671931071)"><path d="M1.83 14.38L1.83 14.38L1.83 14.38Q1.83 13.87 2.00 13.07L2.00 13.07L2.00 13.07Q2.16 12.26 2.42 11.33L2.42 11.33L2.42 11.33Q2.67 10.40 3.01 9.43L3.01 9.43L3.01 9.43Q3.35 8.46 3.70 7.60L3.70 7.60L3.70 7.60Q4.05 6.75 4.38 6.10L4.38 6.10L4.38 6.10Q4.72 5.46 4.98 5.18L4.98 5.18L4.98 5.18Q5.12 5.19 5.36 5.29L5.36 5.29L5.36 5.29Q5.59 5.38 5.82 5.50L5.82 5.50L5.82 5.50Q6.06 5.63 6.26 5.78L6.26 5.78L6.26 5.78Q6.45 5.92 6.51 6.05L6.51 6.05L6.51 6.05Q6.10 6.41 5.71 7.15L5.71 7.15L5.71 7.15Q5.31 7.88 4.94 8.82L4.94 8.82L4.94 8.82Q4.56 9.76 4.24 10.80L4.24 10.80L4.24 10.80Q3.92 11.84 3.68 12.82L3.68 12.82L3.68 12.82Q3.44 13.80 3.31 14.64L3.31 14.64L3.31 14.64Q3.18 15.48 3.18 16.00L3.18 16.00L3.18 16.00Q3.18 16.24 3.22 16.30L3.22 16.30L3.22 16.30Q2.91 16.28 2.77 16.19L2.77 16.19L2.77 16.19Q2.63 16.10 2.56 16.00L2.56 16.00L2.56 16.00Q2.48 15.89 2.42 15.79L2.42 15.79L2.42 15.79Q2.35 15.68 2.23 15.62L2.23 15.62L2.23 15.62Q2.13 15.58 2.06 15.43L2.06 15.43L2.06 15.43Q1.99 15.27 1.94 15.09L1.94 15.09L1.94 15.09Q1.89 14.90 1.86 14.70L1.86 14.70L1.86 14.70Q1.83 14.50 1.83 14.38ZM14.08 9.81L13.29 9.81L13.29 9.81Q13.22 9.73 13.16 9.46L13.16 9.46L13.16 9.46Q13.10 9.18 13.10 8.99L13.10 8.99L13.10 8.99Q13.47 9.02 13.80 9.04L13.80 9.04L13.80 9.04Q14.14 9.06 14.42 9.07L14.42 9.07L14.42 9.07Q14.63 8.65 14.88 8.24L14.88 8.24L14.88 8.24Q15.12 7.83 15.35 7.48L15.35 7.48L15.35 7.48Q15.58 7.14 15.79 6.90L15.79 6.90L15.79 6.90Q15.99 6.66 16.10 6.59L16.10 6.59L16.10 6.59Q16.24 6.59 16.46 6.64L16.46 6.64L16.46 6.64Q16.67 6.69 16.90 6.77L16.90 6.77L16.90 6.77Q17.12 6.85 17.30 6.93L17.30 6.93L17.30 6.93Q17.49 7.01 17.56 7.10L17.56 7.10L17.56 7.10Q17.14 7.63 16.84 8.09L16.84 8.09L16.84 8.09Q16.53 8.54 16.18 9.13L16.18 9.13L16.18 9.13Q16.46 9.13 16.75 9.11L16.75 9.11L16.75 9.11Q17.04 9.10 17.33 9.07L17.33 9.07L17.33 9.07Q17.40 9.14 17.44 9.25L17.44 9.25L17.44 9.25Q17.49 9.35 17.49 9.46L17.49 9.46L17.49 9.46Q16.80 9.72 15.82 9.74L15.82 9.74L15.82 9.74Q15.47 10.42 15.20 11.08L15.20 11.08L15.20 11.08Q14.92 11.75 14.73 12.36L14.73 12.36L14.73 12.36Q14.55 12.98 14.44 13.52L14.44 13.52L14.44 13.52Q14.34 14.07 14.34 14.50L14.34 14.50L14.34 14.50Q14.34 15.12 14.80 15.19L14.80 15.19L14.80 15.19Q15.22 15.13 15.60 14.98L15.60 14.98L15.60 14.98Q15.97 14.83 16.27 14.59L16.27 14.59L16.27 14.59Q16.35 14.71 16.37 14.80L16.37 14.80L16.37 14.80Q16.28 14.92 16.08 15.09L16.08 15.09L16.08 15.09Q15.88 15.26 15.64 15.42L15.64 15.42L15.64 15.42Q15.40 15.58 15.18 15.69L15.18 15.69L15.18 15.69Q14.95 15.81 14.84 15.82L14.84 15.82L14.84 15.82Q14.49 15.81 14.14 15.67L14.14 15.67L14.14 15.67Q13.79 15.53 13.50 15.32L13.50 15.32L13.50 15.32Q13.22 15.11 13.03 14.85L13.03 14.85L13.03 14.85Q12.85 14.59 12.85 14.34L12.85 14.34L12.85 14.34Q12.85 14 12.94 13.49L12.94 13.49L12.94 13.49Q13.03 12.98 13.20 12.38L13.20 12.38L13.20 12.38Q13.37 11.77 13.59 11.12L13.59 11.12L13.59 11.12Q13.82 10.46 14.08 9.81L14.08 9.81ZM26.46 8.08L26.46 8.08L26.46 8.08Q26.38 8.01 26.31 7.85L26.31 7.85L26.31 7.85Q26.24 7.70 26.24 7.55L26.24 7.55L26.24 7.55Q26.40 7.06 26.55 6.42L26.55 6.42L26.55 6.42Q26.70 5.78 26.70 5.00L26.70 5.00L26.70 5.00Q26.70 4.65 26.66 4.28L26.66 4.28L26.66 4.28Q26.63 3.92 26.53 3.51L26.53 3.51L26.53 3.51Q27.20 3.56 27.76 3.80L27.76 3.80L27.76 3.80Q28.31 4.05 28.49 4.40L28.49 4.40L28.49 4.40Q28.25 5.67 27.76 6.61L27.76 6.61L27.76 6.61Q27.27 7.55 26.46 8.08ZM38.70 9.60L38.70 9.60L38.70 9.60Q38.68 9.87 38.60 10.16L38.60 10.16L38.60 10.16Q38.53 10.44 38.42 10.68L38.42 10.68L38.42 10.68Q38.30 10.91 38.18 11.06L38.18 11.06L38.18 11.06Q38.05 11.21 37.94 11.21L37.94 11.21L37.94 11.21Q37.79 11.20 37.76 11.00L37.76 11.00L37.76 11.00Q37.76 10.96 37.79 10.87L37.79 10.87L37.79 10.87Q37.83 10.78 37.87 10.67L37.87 10.67L37.87 10.67Q37.91 10.56 37.95 10.44L37.95 10.44L37.95 10.44Q37.98 10.33 37.98 10.25L37.98 10.25L37.98 10.25Q37.98 10.05 37.89 9.92L37.89 9.92L37.89 9.92Q37.80 9.79 37.65 9.79L37.65 9.79L37.65 9.79Q37.09 9.79 36.79 10.49L36.79 10.49L36.79 10.49Q36.50 11.19 36.50 12.54L36.50 12.54L36.50 12.54Q36.50 12.68 36.51 12.71L36.51 12.71L36.51 12.71Q36.81 12.70 37.04 12.69L37.04 12.69L37.04 12.69Q37.27 12.68 37.49 12.68L37.49 12.68L37.49 12.68Q37.51 12.71 37.51 12.80L37.51 12.80L37.51 12.80Q37.51 12.92 37.45 12.98L37.45 12.98L37.45 12.98Q37.13 13.05 36.94 13.10L36.94 13.10L36.94 13.10Q36.75 13.15 36.65 13.19L36.65 13.19L36.65 13.19Q36.55 13.23 36.53 13.28L36.53 13.28L36.53 13.28Q36.51 13.33 36.51 13.41L36.51 13.41L36.51 13.41Q36.51 13.52 36.52 13.64L36.52 13.64L36.52 13.64Q36.53 13.75 36.53 13.92L36.53 13.92L36.53 13.92Q36.53 15.09 35.89 15.81L35.89 15.81L35.89 15.81Q35.25 16.52 34.12 16.63L34.12 16.63L34.12 16.63Q33.92 16.62 33.71 16.52L33.71 16.52L33.71 16.52Q33.50 16.42 33.31 16.27L33.31 16.27L33.31 16.27Q33.12 16.11 32.98 15.93L32.98 15.93L32.98 15.93Q32.84 15.74 32.79 15.54L32.79 15.54L32.79 15.54Q32.79 15.01 33.01 14.53L33.01 14.53L33.01 14.53Q33.24 14.04 33.62 13.67L33.62 13.67L33.62 13.67Q34.01 13.30 34.53 13.07L34.53 13.07L34.53 13.07Q35.06 12.84 35.67 12.80L35.67 12.80L35.67 12.80Q35.67 12.45 35.60 12.11L35.60 12.11L35.60 12.11Q35.53 11.77 35.45 11.46L35.45 11.46L35.45 11.46Q35.38 11.14 35.31 10.84L35.31 10.84L35.31 10.84Q35.24 10.54 35.24 10.25L35.24 10.25L35.24 10.25Q35.24 9.87 35.39 9.50L35.39 9.50L35.39 9.50Q35.55 9.13 35.80 8.81L35.80 8.81L35.80 8.81Q36.05 8.50 36.39 8.27L36.39 8.27L36.39 8.27Q36.72 8.05 37.09 7.97L37.09 7.97L37.09 7.97Q37.24 8.01 37.50 8.21L37.50 8.21L37.50 8.21Q37.76 8.41 38.01 8.67L38.01 8.67L38.01 8.67Q38.26 8.92 38.46 9.18L38.46 9.18L38.46 9.18Q38.65 9.44 38.70 9.60ZM34.08 15.99L34.08 15.99L34.08 15.99Q34.41 15.85 34.71 15.58L34.71 15.58L34.71 15.58Q35.01 15.32 35.24 14.98L35.24 14.98L35.24 14.98Q35.46 14.64 35.59 14.27L35.59 14.27L35.59 14.27Q35.73 13.89 35.73 13.52L35.73 13.52L35.73 13.52Q35.45 13.57 35.11 13.78L35.11 13.78L35.11 13.78Q34.78 14 34.48 14.30L34.48 14.30L34.48 14.30Q34.19 14.60 33.99 14.92L33.99 14.92L33.99 14.92Q33.80 15.25 33.80 15.48L33.80 15.48L33.80 15.48Q33.80 15.79 34.08 15.99ZM60.87 9.52L60.87 9.52L60.87 9.52Q61.01 9.52 61.20 9.57L61.20 9.57L61.20 9.57Q61.39 9.62 61.54 9.70L61.54 9.70L61.54 9.70Q61.70 9.77 61.80 9.86L61.80 9.86L61.80 9.86Q61.91 9.94 61.91 10.01L61.91 10.01L61.91 10.01Q61.63 10.60 61.39 11.19L61.39 11.19L61.39 11.19Q61.15 11.79 60.98 12.33L60.98 12.33L60.98 12.33Q60.82 12.88 60.72 13.36L60.72 13.36L60.72 13.36Q60.63 13.83 60.63 14.18L60.63 14.18L60.63 14.18Q60.63 14.57 60.72 14.83L60.72 14.83L60.72 14.83Q60.80 15.09 61.00 15.20L61.00 15.20L61.00 15.20Q60.83 15.32 60.56 15.39L60.56 15.39L60.56 15.39Q60.30 15.46 60.09 15.46L60.09 15.46L60.09 15.46Q59.33 15.46 59.33 14.42L59.33 14.42L59.33 14.42Q59.33 13.62 59.86 12.24L59.86 12.24L59.86 12.24Q59.58 12.88 59.22 13.45L59.22 13.45L59.22 13.45Q58.86 14.01 58.48 14.45L58.48 14.45L58.48 14.45Q58.10 14.88 57.71 15.15L57.71 15.15L57.71 15.15Q57.33 15.43 57.01 15.48L57.01 15.48L57.01 15.48Q56.49 15.46 56.17 14.99L56.17 14.99L56.17 14.99Q55.85 14.52 55.85 13.79L55.85 13.79L55.85 13.79Q55.85 13.01 56.18 12.14L56.18 12.14L56.18 12.14Q56.52 11.27 57.04 10.53L57.04 10.53L57.04 10.53Q57.57 9.79 58.18 9.29L58.18 9.29L58.18 9.29Q58.80 8.79 59.37 8.76L59.37 8.76L59.37 8.76Q59.51 8.81 59.69 8.93L59.69 8.93L59.69 8.93Q59.86 9.06 60.02 9.23L60.02 9.23L60.02 9.23Q60.19 9.39 60.30 9.57L60.30 9.57L60.30 9.57Q60.41 9.74 60.42 9.87L60.42 9.87L60.42 9.87Q59.86 9.95 59.27 10.42L59.27 10.42L59.27 10.42Q58.67 10.88 58.19 11.53L58.19 11.53L58.19 11.53Q57.71 12.18 57.40 12.92L57.40 12.92L57.40 12.92Q57.09 13.66 57.09 14.31L57.09 14.31L57.09 14.31Q57.09 14.57 57.29 14.64L57.29 14.64L57.29 14.64Q57.69 14.56 58.23 13.95L58.23 13.95L58.23 13.95Q58.76 13.34 59.51 12.07L59.51 12.07L59.51 12.07Q59.65 11.82 59.83 11.51L59.83 11.51L59.83 11.51Q60.00 11.20 60.19 10.86L60.19 10.86L60.19 10.86Q60.37 10.53 60.54 10.18L60.54 10.18L60.54 10.18Q60.72 9.84 60.87 9.52ZM70.80 15.27L70.80 15.27L70.80 15.27Q71.44 14.84 72.06 14.16L72.06 14.16L72.06 14.16Q72.67 13.48 73.18 12.69L73.18 12.69L73.18 12.69Q73.68 11.90 74.03 11.05L74.03 11.05L74.03 11.05Q74.38 10.19 74.51 9.41L74.51 9.41L74.51 9.41Q74.51 9.24 74.33 9.18L74.33 9.18L74.33 9.18Q74.13 9.18 73.79 9.53L73.79 9.53L73.79 9.53Q73.44 9.87 73.03 10.40L73.03 10.40L73.03 10.40Q72.62 10.93 72.19 11.59L72.19 11.59L72.19 11.59Q71.76 12.25 71.41 12.90L71.41 12.90L71.41 12.90Q71.06 13.55 70.82 14.12L70.82 14.12L70.82 14.12Q70.57 14.69 70.55 15.04L70.55 15.04L70.55 15.04Q70.41 15.04 70.31 14.76L70.31 14.76L70.31 14.76Q70.28 14.69 70.21 14.61L70.21 14.61L70.21 14.61Q70.14 14.53 69.99 14.42L69.99 14.42L69.99 14.42Q69.92 14.36 69.85 14.29L69.85 14.29L69.85 14.29Q69.78 14.21 69.75 14.15L69.75 14.15L69.75 14.15Q69.69 14.04 69.69 13.79L69.69 13.79L69.69 13.79Q69.69 12.96 69.90 11.93L69.90 11.93L69.90 11.93Q70.11 10.89 70.45 9.81L70.45 9.81L70.45 9.81Q70.80 8.74 71.26 7.69L71.26 7.69L71.26 7.69Q71.72 6.65 72.22 5.78L72.22 5.78L72.22 5.78Q72.72 4.91 73.22 4.31L73.22 4.31L73.22 4.31Q73.72 3.71 74.17 3.51L74.17 3.51L74.17 3.51Q74.31 3.56 74.51 3.65L74.51 3.65L74.51 3.65Q74.70 3.75 74.90 3.88L74.90 3.88L74.90 3.88Q75.10 4.00 75.27 4.13L75.27 4.13L75.27 4.13Q75.45 4.26 75.53 4.35L75.53 4.35L75.53 4.35Q73.99 5.60 72.86 7.55L72.86 7.55L72.86 7.55Q71.74 9.51 71.02 12.17L71.02 12.17L71.02 12.17Q71.41 11.44 71.90 10.76L71.90 10.76L71.90 10.76Q72.39 10.08 72.88 9.56L72.88 9.56L72.88 9.56Q73.36 9.04 73.80 8.74L73.80 8.74L73.80 8.74Q74.24 8.43 74.54 8.43L74.54 8.43L74.54 8.43Q74.76 8.48 74.97 8.62L74.97 8.62L74.97 8.62Q75.18 8.76 75.35 8.97L75.35 8.97L75.35 8.97Q75.52 9.17 75.63 9.40L75.63 9.40L75.63 9.40Q75.74 9.63 75.77 9.88L75.77 9.88L75.77 9.88Q75.75 10.47 75.56 11.14L75.56 11.14L75.56 11.14Q75.38 11.80 75.06 12.45L75.06 12.45L75.06 12.45Q74.75 13.09 74.35 13.68L74.35 13.68L74.35 13.68Q73.95 14.27 73.51 14.71L73.51 14.71L73.51 14.71Q73.07 15.15 72.62 15.41L72.62 15.41L72.62 15.41Q72.18 15.68 71.79 15.68L71.79 15.68L71.79 15.68Q71.62 15.68 71.45 15.64L71.45 15.64L71.45 15.64Q71.27 15.61 71.13 15.55L71.13 15.55L71.13 15.55Q70.98 15.48 70.89 15.41L70.89 15.41L70.89 15.41Q70.80 15.34 70.80 15.27ZM84.77 15.67L84.77 15.67L84.77 15.67Q83.97 15.58 83.50 14.97L83.50 14.97L83.50 14.97Q83.02 14.35 83.02 13.40L83.02 13.40L83.02 13.40Q83.02 12.84 83.19 12.24L83.19 12.24L83.19 12.24Q83.36 11.63 83.66 11.07L83.66 11.07L83.66 11.07Q83.97 10.50 84.39 10.00L84.39 10.00L84.39 10.00Q84.81 9.49 85.30 9.13L85.30 9.13L85.30 9.13Q86.07 8.55 86.74 8.55L86.74 8.55L86.74 8.55Q87.19 8.79 87.63 9.55L87.63 9.55L87.63 9.55Q87.70 9.55 87.75 9.54L87.75 9.54L87.75 9.54Q87.81 9.53 87.88 9.53L87.88 9.53L87.88 9.53Q88.62 9.53 88.62 10.85L88.62 10.85L88.62 10.85Q88.62 11.73 88.33 12.52L88.33 12.52L88.33 12.52Q88.05 13.31 87.53 13.96L87.53 13.96L87.53 13.96Q87.02 14.60 86.32 15.04L86.32 15.04L86.32 15.04Q85.61 15.48 84.77 15.67ZM85.48 11.26L85.48 11.26L85.48 11.26Q85.25 11.58 85.04 11.96L85.04 11.96L85.04 11.96Q84.83 12.33 84.67 12.72L84.67 12.72L84.67 12.72Q84.52 13.10 84.43 13.46L84.43 13.46L84.43 13.46Q84.35 13.82 84.35 14.10L84.35 14.10L84.35 14.10Q84.35 14.43 84.46 14.74L84.46 14.74L84.46 14.74Q84.57 15.05 84.71 15.09L84.71 15.09L84.71 15.09Q85.34 14.95 85.87 14.57L85.87 14.57L85.87 14.57Q86.39 14.18 86.78 13.61L86.78 13.61L86.78 13.61Q87.16 13.03 87.38 12.31L87.38 12.31L87.38 12.31Q87.60 11.58 87.60 10.75L87.60 10.75L87.60 10.75Q87.60 10.39 87.56 10.18L87.56 10.18L87.56 10.18Q87.51 9.97 87.42 9.81L87.42 9.81L87.42 9.81Q86.80 10.00 86.32 10.40L86.32 10.40L86.32 10.40Q85.83 10.81 85.48 11.26ZM100.10 14.87L100.10 14.87L100.10 14.87Q99.83 14.64 99.74 14.31L99.74 14.31L99.74 14.31Q99.65 13.97 99.65 13.73L99.65 13.73L99.65 13.73Q99.65 13.44 99.72 13.23L99.72 13.23L99.72 13.23Q99.67 13.23 99.47 13.45L99.47 13.45L99.47 13.45Q99.27 13.68 99.04 13.99L99.04 13.99L99.04 13.99Q98.81 14.29 98.59 14.59L98.59 14.59L98.59 14.59Q98.36 14.88 98.25 15.02L98.25 15.02L98.25 15.02Q98.07 15.22 97.91 15.33L97.91 15.33L97.91 15.33Q97.75 15.44 97.65 15.46L97.65 15.46L97.65 15.46Q97.43 15.44 97.18 15.37L97.18 15.37L97.18 15.37Q96.94 15.29 96.72 15.15L96.72 15.15L96.72 15.15Q96.50 15.01 96.34 14.81L96.34 14.81L96.34 14.81Q96.18 14.62 96.12 14.36L96.12 14.36L96.12 14.36Q96.12 13.97 96.14 13.72L96.14 13.72L96.14 13.72Q96.17 13.47 96.24 13.17L96.24 13.17L96.24 13.17Q96.36 12.64 96.61 11.97L96.61 11.97L96.61 11.97Q96.85 11.30 97.17 10.65L97.17 10.65L97.17 10.65Q97.50 10.00 97.89 9.43L97.89 9.43L97.89 9.43Q98.29 8.86 98.74 8.54L98.74 8.54L98.74 8.54Q98.87 8.54 99.04 8.56L99.04 8.56L99.04 8.56Q99.20 8.58 99.38 8.64L99.38 8.64L99.38 8.64Q99.55 8.69 99.72 8.77L99.72 8.77L99.72 8.77Q99.88 8.85 99.99 8.97L99.99 8.97L99.99 8.97Q99.86 9.11 99.35 9.91L99.35 9.91L99.35 9.91Q98.84 10.71 98.21 12.21L98.21 12.21L98.21 12.21Q98.14 12.36 98.04 12.66L98.04 12.66L98.04 12.66Q97.94 12.95 97.85 13.27L97.85 13.27L97.85 13.27Q97.75 13.59 97.69 13.90L97.69 13.90L97.69 13.90Q97.62 14.21 97.62 14.39L97.62 14.39L97.62 14.39Q97.62 14.50 97.66 14.56L97.66 14.56L97.66 14.56Q97.69 14.62 97.72 14.64L97.72 14.64L97.72 14.64Q97.93 14.56 98.25 14.18L98.25 14.18L98.25 14.18Q98.57 13.80 99.15 13.02L99.15 13.02L99.15 13.02Q99.29 12.82 99.48 12.57L99.48 12.57L99.48 12.57Q99.67 12.32 99.86 12.03L99.86 12.03L99.86 12.03Q100.06 11.75 100.23 11.44L100.23 11.44L100.23 11.44Q100.41 11.13 100.52 10.82L100.52 10.82L100.52 10.82Q100.58 10.65 100.67 10.42L100.67 10.42L100.67 10.42Q100.76 10.19 100.89 9.94L100.89 9.94L100.89 9.94Q101.02 9.69 101.20 9.43L101.20 9.43L101.20 9.43Q101.37 9.17 101.61 8.95L101.61 8.95L101.61 8.95Q101.79 8.95 102.00 8.99L102.00 8.99L102.00 8.99Q102.21 9.03 102.40 9.09L102.40 9.09L102.40 9.09Q102.59 9.16 102.73 9.23L102.73 9.23L102.73 9.23Q102.87 9.31 102.94 9.39L102.94 9.39L102.94 9.39Q102.69 10.01 102.38 10.61L102.38 10.61L102.38 10.61Q102.07 11.21 101.81 11.79L101.81 11.79L101.81 11.79Q101.54 12.38 101.36 12.95L101.36 12.95L101.36 12.95Q101.18 13.52 101.18 14.07L101.18 14.07L101.18 14.07Q101.18 14.36 101.23 14.58L101.23 14.58L101.23 14.58Q101.28 14.80 101.33 14.95L101.33 14.95L101.33 14.95Q101.39 15.09 101.44 15.19L101.44 15.19L101.44 15.19Q101.49 15.29 101.49 15.36L101.49 15.36L101.49 15.36Q101.49 15.37 101.46 15.40L101.46 15.40L101.46 15.40Q101.44 15.41 101.43 15.41L101.43 15.41L101.43 15.41Q101.33 15.41 101.18 15.37L101.18 15.37L101.18 15.37Q101.02 15.33 100.83 15.25L100.83 15.25L100.83 15.25Q100.65 15.18 100.46 15.08L100.46 15.08L100.46 15.08Q100.27 14.98 100.10 14.87ZM111.78 9.81L110.98 9.81L110.98 9.81Q110.91 9.73 110.85 9.46L110.85 9.46L110.85 9.46Q110.80 9.18 110.80 8.99L110.80 8.99L110.80 8.99Q111.16 9.02 111.50 9.04L111.50 9.04L111.50 9.04Q111.83 9.06 112.11 9.07L112.11 9.07L112.11 9.07Q112.32 8.65 112.57 8.24L112.57 8.24L112.57 8.24Q112.81 7.83 113.04 7.48L113.04 7.48L113.04 7.48Q113.27 7.14 113.48 6.90L113.48 6.90L113.48 6.90Q113.68 6.66 113.79 6.59L113.79 6.59L113.79 6.59Q113.93 6.59 114.15 6.64L114.15 6.64L114.15 6.64Q114.37 6.69 114.59 6.77L114.59 6.77L114.59 6.77Q114.81 6.85 115.00 6.93L115.00 6.93L115.00 6.93Q115.18 7.01 115.25 7.10L115.25 7.10L115.25 7.10Q114.83 7.63 114.53 8.09L114.53 8.09L114.53 8.09Q114.23 8.54 113.88 9.13L113.88 9.13L113.88 9.13Q114.16 9.13 114.44 9.11L114.44 9.11L114.44 9.11Q114.73 9.10 115.02 9.07L115.02 9.07L115.02 9.07Q115.09 9.14 115.14 9.25L115.14 9.25L115.14 9.25Q115.18 9.35 115.18 9.46L115.18 9.46L115.18 9.46Q114.49 9.72 113.51 9.74L113.51 9.74L113.51 9.74Q113.16 10.42 112.89 11.08L112.89 11.08L112.89 11.08Q112.62 11.75 112.43 12.36L112.43 12.36L112.43 12.36Q112.24 12.98 112.13 13.52L112.13 13.52L112.13 13.52Q112.03 14.07 112.03 14.50L112.03 14.50L112.03 14.50Q112.03 15.12 112.49 15.19L112.49 15.19L112.49 15.19Q112.91 15.13 113.29 14.98L113.29 14.98L113.29 14.98Q113.67 14.83 113.96 14.59L113.96 14.59L113.96 14.59Q114.04 14.71 114.06 14.80L114.06 14.80L114.06 14.80Q113.97 14.92 113.77 15.09L113.77 15.09L113.77 15.09Q113.57 15.26 113.33 15.42L113.33 15.42L113.33 15.42Q113.09 15.58 112.87 15.69L112.87 15.69L112.87 15.69Q112.64 15.81 112.53 15.82L112.53 15.82L112.53 15.82Q112.18 15.81 111.83 15.67L111.83 15.67L111.83 15.67Q111.48 15.53 111.19 15.32L111.19 15.32L111.19 15.32Q110.91 15.11 110.73 14.85L110.73 14.85L110.73 14.85Q110.54 14.59 110.54 14.34L110.54 14.34L110.54 14.34Q110.54 14 110.63 13.49L110.63 13.49L110.63 13.49Q110.73 12.98 110.89 12.38L110.89 12.38L110.89 12.38Q111.06 11.77 111.29 11.12L111.29 11.12L111.29 11.12Q111.51 10.46 111.78 9.81L111.78 9.81ZM133.70 15.27L133.70 15.27L133.70 15.27Q134.34 14.84 134.96 14.16L134.96 14.16L134.96 14.16Q135.58 13.48 136.08 12.69L136.08 12.69L136.08 12.69Q136.58 11.90 136.93 11.05L136.93 11.05L136.93 11.05Q137.28 10.19 137.41 9.41L137.41 9.41L137.41 9.41Q137.41 9.24 137.23 9.18L137.23 9.18L137.23 9.18Q137.03 9.18 136.69 9.53L136.69 9.53L136.69 9.53Q136.35 9.87 135.93 10.40L135.93 10.40L135.93 10.40Q135.52 10.93 135.09 11.59L135.09 11.59L135.09 11.59Q134.67 12.25 134.32 12.90L134.32 12.90L134.32 12.90Q133.97 13.55 133.72 14.12L133.72 14.12L133.72 14.12Q133.48 14.69 133.45 15.04L133.45 15.04L133.45 15.04Q133.31 15.04 133.21 14.76L133.21 14.76L133.21 14.76Q133.18 14.69 133.11 14.61L133.11 14.61L133.11 14.61Q133.04 14.53 132.89 14.42L132.89 14.42L132.89 14.42Q132.82 14.36 132.75 14.29L132.75 14.29L132.75 14.29Q132.68 14.21 132.65 14.15L132.65 14.15L132.65 14.15Q132.59 14.04 132.59 13.79L132.59 13.79L132.59 13.79Q132.59 12.96 132.80 11.93L132.80 11.93L132.80 11.93Q133.01 10.89 133.36 9.81L133.36 9.81L133.36 9.81Q133.70 8.74 134.16 7.69L134.16 7.69L134.16 7.69Q134.62 6.65 135.12 5.78L135.12 5.78L135.12 5.78Q135.62 4.91 136.12 4.31L136.12 4.31L136.12 4.31Q136.63 3.71 137.07 3.51L137.07 3.51L137.07 3.51Q137.21 3.56 137.41 3.65L137.41 3.65L137.41 3.65Q137.61 3.75 137.80 3.88L137.80 3.88L137.80 3.88Q138.00 4.00 138.17 4.13L138.17 4.13L138.17 4.13Q138.35 4.26 138.43 4.35L138.43 4.35L138.43 4.35Q136.89 5.60 135.76 7.55L135.76 7.55L135.76 7.55Q134.64 9.51 133.92 12.17L133.92 12.17L133.92 12.17Q134.32 11.44 134.81 10.76L134.81 10.76L134.81 10.76Q135.30 10.08 135.78 9.56L135.78 9.56L135.78 9.56Q136.26 9.04 136.70 8.74L136.70 8.74L136.70 8.74Q137.14 8.43 137.44 8.43L137.44 8.43L137.44 8.43Q137.66 8.48 137.87 8.62L137.87 8.62L137.87 8.62Q138.08 8.76 138.25 8.97L138.25 8.97L138.25 8.97Q138.42 9.17 138.53 9.40L138.53 9.40L138.53 9.40Q138.64 9.63 138.67 9.88L138.67 9.88L138.67 9.88Q138.66 10.47 138.47 11.14L138.47 11.14L138.47 11.14Q138.28 11.80 137.96 12.45L137.96 12.45L137.96 12.45Q137.65 13.09 137.25 13.68L137.25 13.68L137.25 13.68Q136.85 14.27 136.41 14.71L136.41 14.71L136.41 14.71Q135.97 15.15 135.53 15.41L135.53 15.41L135.53 15.41Q135.09 15.68 134.69 15.68L134.69 15.68L134.69 15.68Q134.53 15.68 134.35 15.64L134.35 15.64L134.35 15.64Q134.18 15.61 134.03 15.55L134.03 15.55L134.03 15.55Q133.88 15.48 133.79 15.41L133.79 15.41L133.79 15.41Q133.70 15.34 133.70 15.27ZM151.03 9.38L151.03 9.38L151.03 9.38Q150.98 10.25 150.72 10.87L150.72 10.87L150.72 10.87Q150.47 11.49 150.00 11.96L150.00 11.96L150.00 11.96Q149.53 12.43 148.86 12.81L148.86 12.81L148.86 12.81Q148.19 13.19 147.29 13.54L147.29 13.54L147.29 13.54Q147.29 13.62 147.29 13.71L147.29 13.71L147.29 13.71Q147.28 13.80 147.28 13.90L147.28 13.90L147.28 13.90Q147.28 14.08 147.31 14.28L147.31 14.28L147.31 14.28Q147.34 14.48 147.41 14.64L147.41 14.64L147.41 14.64Q147.48 14.81 147.60 14.92L147.60 14.92L147.60 14.92Q147.73 15.02 147.92 15.02L147.92 15.02L147.92 15.02Q148.30 15.02 148.67 14.85L148.67 14.85L148.67 14.85Q149.03 14.69 149.36 14.44L149.36 14.44L149.36 14.44Q149.69 14.20 149.97 13.91L149.97 13.91L149.97 13.91Q150.26 13.62 150.49 13.38L150.49 13.38L150.49 13.38Q150.63 13.51 150.72 13.62L150.72 13.62L150.72 13.62Q150.09 14.46 149.34 15.02L149.34 15.02L149.34 15.02Q148.60 15.57 147.92 15.72L147.92 15.72L147.92 15.72Q146.96 15.61 146.42 15.02L146.42 15.02L146.42 15.02Q145.88 14.42 145.88 13.58L145.88 13.58L145.88 13.58Q145.88 13.01 146.04 12.41L146.04 12.41L146.04 12.41Q146.20 11.82 146.49 11.26L146.49 11.26L146.49 11.26Q146.78 10.71 147.16 10.22L147.16 10.22L147.16 10.22Q147.55 9.73 147.99 9.37L147.99 9.37L147.99 9.37Q148.43 9.00 148.90 8.79L148.90 8.79L148.90 8.79Q149.37 8.58 149.83 8.58L149.83 8.58L149.83 8.58Q150.47 8.67 151.03 9.38ZM150.07 9.84L150.07 9.84L150.07 9.84Q149.69 9.90 149.28 10.15L149.28 10.15L149.28 10.15Q148.88 10.40 148.52 10.82L148.52 10.82L148.52 10.82Q148.16 11.24 147.87 11.80L147.87 11.80L147.87 11.80Q147.57 12.36 147.41 13.01L147.41 13.01L147.41 13.01Q148.53 12.45 149.27 11.63L149.27 11.63L149.27 11.63Q150.01 10.81 150.07 9.84ZM158.69 14.24L158.69 14.24L158.69 14.24Q158.69 14.11 158.71 13.92L158.71 13.92L158.71 13.92Q158.73 13.73 158.79 13.42L158.79 13.42L158.79 13.42Q158.84 13.10 158.93 12.66L158.93 12.66L158.93 12.66Q159.03 12.21 159.17 11.58L159.17 11.58L159.17 11.58Q159.19 11.44 159.29 11.13L159.29 11.13L159.29 11.13Q159.39 10.82 159.55 10.48L159.55 10.48L159.55 10.48Q159.71 10.14 159.94 9.81L159.94 9.81L159.94 9.81Q160.17 9.49 160.50 9.34L160.50 9.34L160.50 9.34Q160.73 9.39 161.13 9.63L161.13 9.63L161.13 9.63Q161.52 9.86 161.80 10.26L161.80 10.26L161.80 10.26Q161.48 10.63 161.26 10.99L161.26 10.99L161.26 10.99Q161.04 11.35 160.87 11.75L160.87 11.75L160.87 11.75Q160.69 12.14 160.54 12.56L160.54 12.56L160.54 12.56Q160.40 12.98 160.22 13.44L160.22 13.44L160.22 13.44Q160.06 13.83 159.94 14.25L159.94 14.25L159.94 14.25Q159.81 14.66 159.80 14.97L159.80 14.97L159.80 14.97Q159.80 15.22 159.79 15.32L159.79 15.32L159.79 15.32Q159.78 15.43 159.71 15.43L159.71 15.43L159.71 15.43Q159.66 15.43 159.49 15.36L159.49 15.36L159.49 15.36Q159.32 15.29 159.14 15.14L159.14 15.14L159.14 15.14Q158.97 14.99 158.83 14.77L158.83 14.77L158.83 14.77Q158.69 14.55 158.69 14.24ZM161.36 8.16L161.36 8.16L161.36 8.16Q161.36 8.08 161.41 7.91L161.41 7.91L161.41 7.91Q161.34 7.84 161.29 7.70L161.29 7.70L161.29 7.70Q161.24 7.56 161.24 7.45L161.24 7.45L161.24 7.45Q161.24 7.32 161.27 7.11L161.27 7.11L161.27 7.11Q161.31 6.89 161.36 6.64L161.36 6.64L161.36 6.64Q161.42 6.38 161.50 6.11L161.50 6.11L161.50 6.11Q161.59 5.84 161.67 5.61L161.67 5.61L161.67 5.61Q161.84 5.61 162.08 5.71L162.08 5.71L162.08 5.71Q162.33 5.80 162.58 5.94L162.58 5.94L162.58 5.94Q162.83 6.09 163.04 6.27L163.04 6.27L163.04 6.27Q163.25 6.44 163.37 6.59L163.37 6.59L163.37 6.59Q163.21 6.75 162.96 7.02L162.96 7.02L162.96 7.02Q162.71 7.29 162.47 7.59L162.47 7.59L162.47 7.59Q162.23 7.90 162.04 8.16L162.04 8.16L162.04 8.16Q161.84 8.43 161.78 8.54L161.78 8.54L161.78 8.54Q161.62 8.51 161.49 8.39L161.49 8.39L161.49 8.39Q161.36 8.27 161.36 8.16ZM171.25 8.39L171.25 8.39L171.25 8.39Q171.61 8.50 171.93 8.88L171.93 8.88L171.93 8.88Q172.26 9.27 172.41 9.73L172.41 9.73L172.41 9.73Q172.26 10.11 171.93 10.64L171.93 10.64L171.93 10.64Q171.61 11.17 171.29 11.72L171.29 11.72L171.29 11.72Q170.97 12.28 170.71 12.78L170.71 12.78L170.71 12.78Q170.45 13.27 170.41 13.59L170.41 13.59L170.41 13.59Q170.63 13.36 170.90 13.04L170.90 13.04L170.90 13.04Q171.18 12.73 171.44 12.41L171.44 12.41L171.44 12.41Q171.70 12.10 171.92 11.84L171.92 11.84L171.92 11.84Q172.14 11.58 172.27 11.45L172.27 11.45L172.27 11.45Q172.54 11.17 172.90 10.80L172.90 10.80L172.90 10.80Q173.26 10.43 173.66 10.10L173.66 10.10L173.66 10.10Q174.06 9.77 174.47 9.54L174.47 9.54L174.47 9.54Q174.87 9.31 175.21 9.31L175.21 9.31L175.21 9.31Q175.57 9.31 175.82 9.55L175.82 9.55L175.82 9.55Q176.06 9.80 176.20 10.07L176.20 10.07L176.20 10.07Q176.20 10.09 176.10 10.14L176.10 10.14L176.10 10.14Q175.99 10.19 175.80 10.42L175.80 10.42L175.80 10.42Q175.60 10.67 175.36 11.11L175.36 11.11L175.36 11.11Q175.11 11.55 174.88 12.06L174.88 12.06L174.88 12.06Q174.65 12.57 174.50 13.10L174.50 13.10L174.50 13.10Q174.34 13.64 174.34 14.07L174.34 14.07L174.34 14.07Q174.34 14.42 174.43 14.52L174.43 14.52L174.43 14.52Q174.52 14.62 174.69 14.62L174.69 14.62L174.69 14.62Q174.85 14.62 175.01 14.55L175.01 14.55L175.01 14.55Q175.18 14.48 175.28 14.48L175.28 14.48L175.28 14.48Q175.34 14.50 175.37 14.60L175.37 14.60L175.37 14.60Q175.41 14.69 175.41 14.76L175.41 14.76L175.41 14.76Q175.29 14.85 175.14 14.95L175.14 14.95L175.14 14.95Q174.99 15.05 174.82 15.13L174.82 15.13L174.82 15.13Q174.65 15.22 174.49 15.27L174.49 15.27L174.49 15.27Q174.33 15.33 174.20 15.33L174.20 15.33L174.20 15.33Q173.80 15.33 173.54 15.21L173.54 15.21L173.54 15.21Q173.28 15.09 173.13 14.90L173.13 14.90L173.13 14.90Q172.98 14.70 172.93 14.43L172.93 14.43L172.93 14.43Q172.87 14.15 172.87 13.85L172.87 13.85L172.87 13.85Q172.87 13.68 172.90 13.47L172.90 13.47L172.90 13.47Q172.93 13.26 173.01 12.97L173.01 12.97L173.01 12.97Q173.10 12.68 173.25 12.29L173.25 12.29L173.25 12.29Q173.40 11.89 173.64 11.33L173.64 11.33L173.64 11.33Q173.61 11.33 173.26 11.52L173.26 11.52L173.26 11.52Q172.91 11.72 172.51 12.12L172.51 12.12L172.51 12.12Q171.85 12.75 171.32 13.37L171.32 13.37L171.32 13.37Q170.80 13.99 170.25 14.74L170.25 14.74L170.25 14.74Q169.95 15.18 169.71 15.48L169.71 15.48L169.71 15.48Q169.48 15.78 169.32 15.88L169.32 15.88L169.32 15.88Q169.02 15.71 168.88 15.41L168.88 15.41L168.88 15.41Q168.74 15.11 168.67 14.78L168.67 14.78L168.67 14.78Q168.67 14.52 168.75 14.11L168.75 14.11L168.75 14.11Q168.83 13.71 168.96 13.21L168.96 13.21L168.96 13.21Q169.09 12.71 169.29 12.17L169.29 12.17L169.29 12.17Q169.48 11.62 169.72 11.07L169.72 11.07L169.72 11.07Q170.25 9.84 170.69 9.14L170.69 9.14L170.69 9.14Q171.14 8.44 171.25 8.39ZM180.71 19.35L180.71 19.35L180.71 19.35Q180.71 19.26 180.77 19.19L180.77 19.19L180.77 19.19Q180.82 19.12 180.89 19.05L180.89 19.05L180.89 19.05Q181.06 19.21 181.18 19.29L181.18 19.29L181.18 19.29Q181.30 19.38 181.41 19.43L181.41 19.43L181.41 19.43Q181.51 19.49 181.62 19.50L181.62 19.50L181.62 19.50Q181.73 19.52 181.89 19.52L181.89 19.52L181.89 19.52Q182.62 19.52 183.27 19.13L183.27 19.13L183.27 19.13Q183.93 18.75 184.51 18.02L184.51 18.02L184.51 18.02Q185.09 17.29 185.57 16.24L185.57 16.24L185.57 16.24Q186.05 15.19 186.41 13.86L186.41 13.86L186.41 13.86Q186.24 14.03 186.00 14.23L186.00 14.23L186.00 14.23Q185.75 14.43 185.49 14.62L185.49 14.62L185.49 14.62Q185.22 14.80 184.96 14.95L184.96 14.95L184.96 14.95Q184.70 15.11 184.52 15.18L184.52 15.18L184.52 15.18Q184.28 15.13 184.08 14.97L184.08 14.97L184.08 14.97Q183.88 14.81 183.72 14.57L183.72 14.57L183.72 14.57Q183.57 14.34 183.48 14.04L183.48 14.04L183.48 14.04Q183.40 13.73 183.40 13.40L183.40 13.40L183.40 13.40Q183.40 12.85 183.60 12.28L183.60 12.28L183.60 12.28Q183.81 11.70 184.14 11.15L184.14 11.15L184.14 11.15Q184.48 10.60 184.93 10.11L184.93 10.11L184.93 10.11Q185.39 9.62 185.90 9.25L185.90 9.25L185.90 9.25Q186.41 8.89 186.94 8.67L186.94 8.67L186.94 8.67Q187.46 8.46 187.96 8.46L187.96 8.46L187.96 8.46Q188.45 8.46 188.70 8.66L188.70 8.66L188.70 8.66Q188.94 8.86 189.06 9.35L189.06 9.35L189.06 9.35Q188.90 9.27 188.66 9.27L188.66 9.27L188.66 9.27Q188.33 9.27 187.89 9.53L187.89 9.53L187.89 9.53Q187.45 9.80 186.99 10.23L186.99 10.23L186.99 10.23Q186.54 10.65 186.09 11.21L186.09 11.21L186.09 11.21Q185.64 11.76 185.30 12.33L185.30 12.33L185.30 12.33Q184.95 12.91 184.74 13.45L184.74 13.45L184.74 13.45Q184.52 14 184.52 14.43L184.52 14.43L184.52 14.43Q184.52 14.53 184.53 14.55L184.53 14.55L184.53 14.55Q184.55 14.57 184.58 14.57L184.58 14.57L184.58 14.57Q184.70 14.57 184.92 14.43L184.92 14.43L184.92 14.43Q185.14 14.29 185.41 14.08L185.41 14.08L185.41 14.08Q185.68 13.86 185.98 13.57L185.98 13.57L185.98 13.57Q186.27 13.29 186.54 12.99L186.54 12.99L186.54 12.99Q187.14 12.32 187.63 11.49L187.63 11.49L187.63 11.49Q188.13 10.65 188.43 9.87L188.43 9.87L188.43 9.87Q188.80 9.90 189.10 10.00L189.10 10.00L189.10 10.00Q189.39 10.09 189.50 10.21L189.50 10.21L189.50 10.21Q189.03 11.30 188.74 12.04L188.74 12.04L188.74 12.04Q188.45 12.78 188.24 13.36L188.24 13.36L188.24 13.36Q187.87 14.36 187.54 15.20L187.54 15.20L187.54 15.20Q187.21 16.03 186.86 16.74L186.86 16.74L186.86 16.74Q186.52 17.44 186.12 18.05L186.12 18.05L186.12 18.05Q185.72 18.66 185.22 19.22L185.22 19.22L185.22 19.22Q184.98 19.49 184.68 19.69L184.68 19.69L184.68 19.69Q184.38 19.89 184.06 20.03L184.06 20.03L184.06 20.03Q183.75 20.17 183.45 20.24L183.45 20.24L183.45 20.24Q183.15 20.31 182.90 20.31L182.90 20.31L182.90 20.31Q182.56 20.31 182.21 20.24L182.21 20.24L182.21 20.24Q181.86 20.16 181.56 20.03L181.56 20.03L181.56 20.03Q181.26 19.89 181.03 19.72L181.03 19.72L181.03 19.72Q180.81 19.54 180.71 19.35ZM204.34 19.35L204.34 19.35L204.34 19.35Q204.34 19.26 204.40 19.19L204.40 19.19L204.40 19.19Q204.46 19.12 204.53 19.05L204.53 19.05L204.53 19.05Q204.69 19.21 204.81 19.29L204.81 19.29L204.81 19.29Q204.93 19.38 205.04 19.43L205.04 19.43L205.04 19.43Q205.14 19.49 205.25 19.50L205.25 19.50L205.25 19.50Q205.37 19.52 205.52 19.52L205.52 19.52L205.52 19.52Q206.25 19.52 206.91 19.13L206.91 19.13L206.91 19.13Q207.56 18.75 208.14 18.02L208.14 18.02L208.14 18.02Q208.73 17.29 209.20 16.24L209.20 16.24L209.20 16.24Q209.68 15.19 210.04 13.86L210.04 13.86L210.04 13.86Q209.87 14.03 209.63 14.23L209.63 14.23L209.63 14.23Q209.38 14.43 209.12 14.62L209.12 14.62L209.12 14.62Q208.85 14.80 208.59 14.95L208.59 14.95L208.59 14.95Q208.33 15.11 208.15 15.18L208.15 15.18L208.15 15.18Q207.91 15.13 207.71 14.97L207.71 14.97L207.71 14.97Q207.51 14.81 207.35 14.57L207.35 14.57L207.35 14.57Q207.20 14.34 207.12 14.04L207.12 14.04L207.12 14.04Q207.03 13.73 207.03 13.40L207.03 13.40L207.03 13.40Q207.03 12.85 207.23 12.28L207.23 12.28L207.23 12.28Q207.44 11.70 207.77 11.15L207.77 11.15L207.77 11.15Q208.11 10.60 208.56 10.11L208.56 10.11L208.56 10.11Q209.02 9.62 209.53 9.25L209.53 9.25L209.53 9.25Q210.04 8.89 210.57 8.67L210.57 8.67L210.57 8.67Q211.09 8.46 211.60 8.46L211.60 8.46L211.60 8.46Q212.09 8.46 212.33 8.66L212.33 8.66L212.33 8.66Q212.58 8.86 212.69 9.35L212.69 9.35L212.69 9.35Q212.53 9.27 212.30 9.27L212.30 9.27L212.30 9.27Q211.96 9.27 211.52 9.53L211.52 9.53L211.52 9.53Q211.08 9.80 210.62 10.23L210.62 10.23L210.62 10.23Q210.17 10.65 209.72 11.21L209.72 11.21L209.72 11.21Q209.27 11.76 208.93 12.33L208.93 12.33L208.93 12.33Q208.59 12.91 208.37 13.45L208.37 13.45L208.37 13.45Q208.15 14 208.15 14.43L208.15 14.43L208.15 14.43Q208.15 14.53 208.17 14.55L208.17 14.55L208.17 14.55Q208.18 14.57 208.21 14.57L208.21 14.57L208.21 14.57Q208.33 14.57 208.55 14.43L208.55 14.43L208.55 14.43Q208.77 14.29 209.04 14.08L209.04 14.08L209.04 14.08Q209.31 13.86 209.61 13.57L209.61 13.57L209.61 13.57Q209.90 13.29 210.17 12.99L210.17 12.99L210.17 12.99Q210.77 12.32 211.27 11.49L211.27 11.49L211.27 11.49Q211.76 10.65 212.06 9.87L212.06 9.87L212.06 9.87Q212.44 9.90 212.73 10.00L212.73 10.00L212.73 10.00Q213.02 10.09 213.14 10.21L213.14 10.21L213.14 10.21Q212.66 11.30 212.37 12.04L212.37 12.04L212.37 12.04Q212.09 12.78 211.88 13.36L211.88 13.36L211.88 13.36Q211.50 14.36 211.17 15.20L211.17 15.20L211.17 15.20Q210.84 16.03 210.50 16.74L210.50 16.74L210.50 16.74Q210.15 17.44 209.75 18.05L209.75 18.05L209.75 18.05Q209.36 18.66 208.85 19.22L208.85 19.22L208.85 19.22Q208.61 19.49 208.31 19.69L208.31 19.69L208.31 19.69Q208.01 19.89 207.70 20.03L207.70 20.03L207.70 20.03Q207.38 20.17 207.08 20.24L207.08 20.24L207.08 20.24Q206.78 20.31 206.53 20.31L206.53 20.31L206.53 20.31Q206.19 20.31 205.84 20.24L205.84 20.24L205.84 20.24Q205.49 20.16 205.19 20.03L205.19 20.03L205.19 20.03Q204.89 19.89 204.67 19.72L204.67 19.72L204.67 19.72Q204.44 19.54 204.34 19.35ZM222.12 15.67L222.12 15.67L222.12 15.67Q221.33 15.58 220.85 14.97L220.85 14.97L220.85 14.97Q220.37 14.35 220.37 13.40L220.37 13.40L220.37 13.40Q220.37 12.84 220.54 12.24L220.54 12.24L220.54 12.24Q220.71 11.63 221.02 11.07L221.02 11.07L221.02 11.07Q221.33 10.50 221.75 10.00L221.75 10.00L221.75 10.00Q222.17 9.49 222.66 9.13L222.66 9.13L222.66 9.13Q223.43 8.55 224.10 8.55L224.10 8.55L224.10 8.55Q224.55 8.79 224.98 9.55L224.98 9.55L224.98 9.55Q225.05 9.55 225.11 9.54L225.11 9.54L225.11 9.54Q225.16 9.53 225.23 9.53L225.23 9.53L225.23 9.53Q225.97 9.53 225.97 10.85L225.97 10.85L225.97 10.85Q225.97 11.73 225.69 12.52L225.69 12.52L225.69 12.52Q225.40 13.31 224.89 13.96L224.89 13.96L224.89 13.96Q224.38 14.60 223.67 15.04L223.67 15.04L223.67 15.04Q222.96 15.48 222.12 15.67ZM222.84 11.26L222.84 11.26L222.84 11.26Q222.60 11.58 222.39 11.96L222.39 11.96L222.39 11.96Q222.18 12.33 222.03 12.72L222.03 12.72L222.03 12.72Q221.87 13.10 221.79 13.46L221.79 13.46L221.79 13.46Q221.70 13.82 221.70 14.10L221.70 14.10L221.70 14.10Q221.70 14.43 221.82 14.74L221.82 14.74L221.82 14.74Q221.93 15.05 222.07 15.09L222.07 15.09L222.07 15.09Q222.70 14.95 223.22 14.57L223.22 14.57L223.22 14.57Q223.75 14.18 224.13 13.61L224.13 13.61L224.13 13.61Q224.52 13.03 224.74 12.31L224.74 12.31L224.74 12.31Q224.95 11.58 224.95 10.75L224.95 10.75L224.95 10.75Q224.95 10.39 224.91 10.18L224.91 10.18L224.91 10.18Q224.87 9.97 224.77 9.81L224.77 9.81L224.77 9.81Q224.15 10.00 223.67 10.40L223.67 10.40L223.67 10.40Q223.19 10.81 222.84 11.26ZM235.30 15.67L235.30 15.67L235.30 15.67Q234.50 15.58 234.02 14.97L234.02 14.97L234.02 14.97Q233.55 14.35 233.55 13.40L233.55 13.40L233.55 13.40Q233.55 12.84 233.72 12.24L233.72 12.24L233.72 12.24Q233.88 11.63 234.19 11.07L234.19 11.07L234.19 11.07Q234.50 10.50 234.92 10.00L234.92 10.00L234.92 10.00Q235.34 9.49 235.83 9.13L235.83 9.13L235.83 9.13Q236.60 8.55 237.27 8.55L237.27 8.55L237.27 8.55Q237.72 8.79 238.15 9.55L238.15 9.55L238.15 9.55Q238.22 9.55 238.28 9.54L238.28 9.54L238.28 9.54Q238.34 9.53 238.41 9.53L238.41 9.53L238.41 9.53Q239.15 9.53 239.15 10.85L239.15 10.85L239.15 10.85Q239.15 11.73 238.86 12.52L238.86 12.52L238.86 12.52Q238.57 13.31 238.06 13.96L238.06 13.96L238.06 13.96Q237.55 14.60 236.84 15.04L236.84 15.04L236.84 15.04Q236.14 15.48 235.30 15.67ZM236.01 11.26L236.01 11.26L236.01 11.26Q235.77 11.58 235.56 11.96L235.56 11.96L235.56 11.96Q235.35 12.33 235.20 12.72L235.20 12.72L235.20 12.72Q235.05 13.10 234.96 13.46L234.96 13.46L234.96 13.46Q234.88 13.82 234.88 14.10L234.88 14.10L234.88 14.10Q234.88 14.43 234.99 14.74L234.99 14.74L234.99 14.74Q235.10 15.05 235.24 15.09L235.24 15.09L235.24 15.09Q235.87 14.95 236.40 14.57L236.40 14.57L236.40 14.57Q236.92 14.18 237.31 13.61L237.31 13.61L237.31 13.61Q237.69 13.03 237.91 12.31L237.91 12.31L237.91 12.31Q238.13 11.58 238.13 10.75L238.13 10.75L238.13 10.75Q238.13 10.39 238.08 10.18L238.08 10.18L238.08 10.18Q238.04 9.97 237.94 9.81L237.94 9.81L237.94 9.81Q237.33 10.00 236.84 10.40L236.84 10.40L236.84 10.40Q236.36 10.81 236.01 11.26ZM249.87 8.64L249.87 8.64L249.87 8.64Q250.15 8.64 250.52 8.81L250.52 8.81L250.52 8.81Q250.88 8.97 251.16 9.24L251.16 9.24L251.16 9.24Q251.09 8.68 250.99 8.18L250.99 8.18L250.99 8.18Q250.88 7.69 250.68 7.15L250.68 7.15L250.68 7.15Q250.47 6.62 250.14 5.99L250.14 5.99L250.14 5.99Q249.80 5.36 249.30 4.55L249.30 4.55L249.30 4.55Q249.34 4.42 249.49 4.26L249.49 4.26L249.49 4.26Q249.63 4.09 249.82 3.94L249.82 3.94L249.82 3.94Q250.01 3.79 250.22 3.68L250.22 3.68L250.22 3.68Q250.42 3.57 250.60 3.54L250.60 3.54L250.60 3.54Q250.99 3.98 251.34 4.63L251.34 4.63L251.34 4.63Q251.69 5.28 251.96 6.03L251.96 6.03L251.96 6.03Q252.22 6.78 252.37 7.57L252.37 7.57L252.37 7.57Q252.52 8.37 252.52 9.10L252.52 9.10L252.52 9.10Q252.52 9.83 252.36 10.60L252.36 10.60L252.36 10.60Q252.20 11.37 251.91 12.10L251.91 12.10L251.91 12.10Q251.62 12.84 251.24 13.50L251.24 13.50L251.24 13.50Q250.87 14.15 250.43 14.67L250.43 14.67L250.43 14.67Q249.98 15.19 249.51 15.52L249.51 15.52L249.51 15.52Q249.03 15.85 248.56 15.93L248.56 15.93L248.56 15.93Q247.59 15.82 247.08 15.31L247.08 15.31L247.08 15.31Q246.57 14.80 246.57 13.90L246.57 13.90L246.57 13.90Q246.57 13.43 246.72 12.87L246.72 12.87L246.72 12.87Q246.86 12.31 247.11 11.75L247.11 11.75L247.11 11.75Q247.35 11.20 247.68 10.68L247.68 10.68L247.68 10.68Q248.01 10.15 248.38 9.73L248.38 9.73L248.38 9.73Q248.75 9.31 249.13 9.02L249.13 9.02L249.13 9.02Q249.51 8.72 249.87 8.64ZM248.44 15.37L248.44 15.37L248.44 15.37Q248.93 15.20 249.42 14.63L249.42 14.63L249.42 14.63Q249.91 14.06 250.31 13.28L250.31 13.28L250.31 13.28Q250.70 12.50 250.94 11.61L250.94 11.61L250.94 11.61Q251.19 10.72 251.19 9.90L251.19 9.90L251.19 9.90Q251.19 9.66 251.19 9.60L251.19 9.60L251.19 9.60Q251.19 9.55 251.17 9.49L251.17 9.49L251.17 9.49Q250.84 9.63 250.46 9.97L250.46 9.97L250.46 9.97Q250.08 10.30 249.70 10.75L249.70 10.75L249.70 10.75Q249.33 11.19 248.99 11.70L248.99 11.70L248.99 11.70Q248.65 12.22 248.39 12.74L248.39 12.74L248.39 12.74Q248.12 13.26 247.97 13.73L247.97 13.73L247.97 13.73Q247.81 14.21 247.81 14.57L247.81 14.57L247.81 14.57Q247.81 15.27 248.44 15.37ZM271.84 9.81L271.04 9.81L271.04 9.81Q270.97 9.73 270.91 9.46L270.91 9.46L270.91 9.46Q270.86 9.18 270.86 8.99L270.86 8.99L270.86 8.99Q271.22 9.02 271.56 9.04L271.56 9.04L271.56 9.04Q271.89 9.06 272.17 9.07L272.17 9.07L272.17 9.07Q272.38 8.65 272.63 8.24L272.63 8.24L272.63 8.24Q272.87 7.83 273.11 7.48L273.11 7.48L273.11 7.48Q273.34 7.14 273.54 6.90L273.54 6.90L273.54 6.90Q273.74 6.66 273.85 6.59L273.85 6.59L273.85 6.59Q273.99 6.59 274.21 6.64L274.21 6.64L274.21 6.64Q274.43 6.69 274.65 6.77L274.65 6.77L274.65 6.77Q274.88 6.85 275.06 6.93L275.06 6.93L275.06 6.93Q275.24 7.01 275.31 7.10L275.31 7.10L275.31 7.10Q274.89 7.63 274.59 8.09L274.59 8.09L274.59 8.09Q274.29 8.54 273.94 9.13L273.94 9.13L273.94 9.13Q274.22 9.13 274.50 9.11L274.50 9.11L274.50 9.11Q274.79 9.10 275.09 9.07L275.09 9.07L275.09 9.07Q275.16 9.14 275.20 9.25L275.20 9.25L275.20 9.25Q275.24 9.35 275.24 9.46L275.24 9.46L275.24 9.46Q274.55 9.72 273.57 9.74L273.57 9.74L273.57 9.74Q273.22 10.42 272.95 11.08L272.95 11.08L272.95 11.08Q272.68 11.75 272.49 12.36L272.49 12.36L272.49 12.36Q272.30 12.98 272.19 13.52L272.19 13.52L272.19 13.52Q272.09 14.07 272.09 14.50L272.09 14.50L272.09 14.50Q272.09 15.12 272.55 15.19L272.55 15.19L272.55 15.19Q272.97 15.13 273.35 14.98L273.35 14.98L273.35 14.98Q273.73 14.83 274.02 14.59L274.02 14.59L274.02 14.59Q274.11 14.71 274.12 14.80L274.12 14.80L274.12 14.80Q274.04 14.92 273.83 15.09L273.83 15.09L273.83 15.09Q273.63 15.26 273.39 15.42L273.39 15.42L273.39 15.42Q273.15 15.58 272.93 15.69L272.93 15.69L272.93 15.69Q272.71 15.81 272.59 15.82L272.59 15.82L272.59 15.82Q272.24 15.81 271.89 15.67L271.89 15.67L271.89 15.67Q271.54 15.53 271.26 15.32L271.26 15.32L271.26 15.32Q270.97 15.11 270.79 14.85L270.79 14.85L270.79 14.85Q270.61 14.59 270.61 14.34L270.61 14.34L270.61 14.34Q270.61 14 270.70 13.49L270.70 13.49L270.70 13.49Q270.79 12.98 270.96 12.38L270.96 12.38L270.96 12.38Q271.12 11.77 271.35 11.12L271.35 11.12L271.35 11.12Q271.57 10.46 271.84 9.81L271.84 9.81ZM283.79 15.67L283.79 15.67L283.79 15.67Q283.00 15.58 282.52 14.97L282.52 14.97L282.52 14.97Q282.04 14.35 282.04 13.40L282.04 13.40L282.04 13.40Q282.04 12.84 282.21 12.24L282.21 12.24L282.21 12.24Q282.38 11.63 282.69 11.07L282.69 11.07L282.69 11.07Q283.00 10.50 283.42 10.00L283.42 10.00L283.42 10.00Q283.84 9.49 284.33 9.13L284.33 9.13L284.33 9.13Q285.10 8.55 285.77 8.55L285.77 8.55L285.77 8.55Q286.22 8.79 286.65 9.55L286.65 9.55L286.65 9.55Q286.72 9.55 286.78 9.54L286.78 9.54L286.78 9.54Q286.83 9.53 286.90 9.53L286.90 9.53L286.90 9.53Q287.64 9.53 287.64 10.85L287.64 10.85L287.64 10.85Q287.64 11.73 287.36 12.52L287.36 12.52L287.36 12.52Q287.07 13.31 286.56 13.96L286.56 13.96L286.56 13.96Q286.05 14.60 285.34 15.04L285.34 15.04L285.34 15.04Q284.63 15.48 283.79 15.67ZM284.51 11.26L284.51 11.26L284.51 11.26Q284.27 11.58 284.06 11.96L284.06 11.96L284.06 11.96Q283.85 12.33 283.70 12.72L283.70 12.72L283.70 12.72Q283.54 13.10 283.46 13.46L283.46 13.46L283.46 13.46Q283.37 13.82 283.37 14.10L283.37 14.10L283.37 14.10Q283.37 14.43 283.49 14.74L283.49 14.74L283.49 14.74Q283.60 15.05 283.74 15.09L283.74 15.09L283.74 15.09Q284.37 14.95 284.89 14.57L284.89 14.57L284.89 14.57Q285.42 14.18 285.80 13.61L285.80 13.61L285.80 13.61Q286.19 13.03 286.40 12.31L286.40 12.31L286.40 12.31Q286.62 11.58 286.62 10.75L286.62 10.75L286.62 10.75Q286.62 10.39 286.58 10.18L286.58 10.18L286.58 10.18Q286.54 9.97 286.44 9.81L286.44 9.81L286.44 9.81Q285.82 10.00 285.34 10.40L285.34 10.40L285.34 10.40Q284.86 10.81 284.51 11.26ZM310.91 13.01L310.91 13.01L310.91 13.01Q310.59 14.03 310.27 14.87L310.27 14.87L310.27 14.87Q309.95 15.71 309.58 16.41L309.58 16.41L309.58 16.41Q309.22 17.12 308.80 17.72L308.80 17.72L308.80 17.72Q308.38 18.31 307.87 18.84L307.87 18.84L307.87 18.84Q307.23 19.52 306.54 19.87L306.54 19.87L306.54 19.87Q305.86 20.23 305.17 20.23L305.17 20.23L305.17 20.23Q304.82 20.23 304.48 20.15L304.48 20.15L304.48 20.15Q304.14 20.08 303.83 19.94L303.83 19.94L303.83 19.94Q303.53 19.81 303.30 19.64L303.30 19.64L303.30 19.64Q303.07 19.46 302.97 19.26L302.97 19.26L302.97 19.26Q302.97 19.10 303.17 18.97L303.17 18.97L303.17 18.97Q303.34 19.12 303.45 19.21L303.45 19.21L303.45 19.21Q303.56 19.29 303.67 19.35L303.67 19.35L303.67 19.35Q303.77 19.40 303.89 19.42L303.89 19.42L303.89 19.42Q304.01 19.43 304.16 19.43L304.16 19.43L304.16 19.43Q304.96 19.43 305.72 18.96L305.72 18.96L305.72 18.96Q306.49 18.49 307.17 17.63L307.17 17.63L307.17 17.63Q307.85 16.77 308.41 15.55L308.41 15.55L308.41 15.55Q308.97 14.32 309.36 12.81L309.36 12.81L309.36 12.81Q309.18 13.09 308.91 13.50L308.91 13.50L308.91 13.50Q308.64 13.90 308.32 14.30L308.32 14.30L308.32 14.30Q308.00 14.70 307.66 15.02L307.66 15.02L307.66 15.02Q307.31 15.34 306.99 15.46L306.99 15.46L306.99 15.46Q306.77 15.44 306.52 15.37L306.52 15.37L306.52 15.37Q306.28 15.29 306.06 15.15L306.06 15.15L306.06 15.15Q305.84 15.01 305.68 14.81L305.68 14.81L305.68 14.81Q305.51 14.62 305.45 14.36L305.45 14.36L305.45 14.36Q305.45 13.96 305.48 13.71L305.48 13.71L305.48 13.71Q305.51 13.47 305.58 13.17L305.58 13.17L305.58 13.17Q305.70 12.64 305.95 11.97L305.95 11.97L305.95 11.97Q306.19 11.30 306.52 10.65L306.52 10.65L306.52 10.65Q306.85 10.00 307.25 9.43L307.25 9.43L307.25 9.43Q307.65 8.86 308.08 8.54L308.08 8.54L308.08 8.54Q308.20 8.54 308.36 8.56L308.36 8.56L308.36 8.56Q308.53 8.58 308.71 8.64L308.71 8.64L308.71 8.64Q308.90 8.69 309.06 8.77L309.06 8.77L309.06 8.77Q309.23 8.85 309.36 8.97L309.36 8.97L309.36 8.97Q309.20 9.11 308.69 9.91L308.69 9.91L308.69 9.91Q308.17 10.71 307.54 12.21L307.54 12.21L307.54 12.21Q307.47 12.36 307.37 12.66L307.37 12.66L307.37 12.66Q307.27 12.95 307.18 13.27L307.18 13.27L307.18 13.27Q307.09 13.59 307.02 13.90L307.02 13.90L307.02 13.90Q306.95 14.21 306.95 14.39L306.95 14.39L306.95 14.39Q306.95 14.50 306.98 14.56L306.98 14.56L306.98 14.56Q307.02 14.62 307.05 14.64L307.05 14.64L307.05 14.64Q307.30 14.60 307.72 14.23L307.72 14.23L307.72 14.23Q308.14 13.86 308.67 13.08L308.67 13.08L308.67 13.08Q309.01 12.57 309.29 12.07L309.29 12.07L309.29 12.07Q309.57 11.58 309.84 11.07L309.84 11.07L309.84 11.07Q310.11 10.57 310.41 10.04L310.41 10.04L310.41 10.04Q310.70 9.51 311.04 8.95L311.04 8.95L311.04 8.95Q311.22 8.95 311.43 8.99L311.43 8.99L311.43 8.99Q311.64 9.03 311.84 9.09L311.84 9.09L311.84 9.09Q312.03 9.16 312.18 9.23L312.18 9.23L312.18 9.23Q312.33 9.31 312.40 9.39L312.40 9.39L312.40 9.39Q311.96 10.32 311.58 11.20L311.58 11.20L311.58 11.20Q311.21 12.08 310.91 13.01ZM321.15 15.67L321.15 15.67L321.15 15.67Q320.35 15.58 319.87 14.97L319.87 14.97L319.87 14.97Q319.40 14.35 319.40 13.40L319.40 13.40L319.40 13.40Q319.40 12.84 319.56 12.24L319.56 12.24L319.56 12.24Q319.73 11.63 320.04 11.07L320.04 11.07L320.04 11.07Q320.35 10.50 320.77 10.00L320.77 10.00L320.77 10.00Q321.19 9.49 321.68 9.13L321.68 9.13L321.68 9.13Q322.45 8.55 323.12 8.55L323.12 8.55L323.12 8.55Q323.57 8.79 324.00 9.55L324.00 9.55L324.00 9.55Q324.07 9.55 324.13 9.54L324.13 9.54L324.13 9.54Q324.18 9.53 324.25 9.53L324.25 9.53L324.25 9.53Q325.00 9.53 325.00 10.85L325.00 10.85L325.00 10.85Q325.00 11.73 324.71 12.52L324.71 12.52L324.71 12.52Q324.42 13.31 323.91 13.96L323.91 13.96L323.91 13.96Q323.40 14.60 322.69 15.04L322.69 15.04L322.69 15.04Q321.99 15.48 321.15 15.67ZM321.86 11.26L321.86 11.26L321.86 11.26Q321.62 11.58 321.41 11.96L321.41 11.96L321.41 11.96Q321.20 12.33 321.05 12.72L321.05 12.72L321.05 12.72Q320.89 13.10 320.81 13.46L320.81 13.46L320.81 13.46Q320.73 13.82 320.73 14.10L320.73 14.10L320.73 14.10Q320.73 14.43 320.84 14.74L320.84 14.74L320.84 14.74Q320.95 15.05 321.09 15.09L321.09 15.09L321.09 15.09Q321.72 14.95 322.24 14.57L322.24 14.57L322.24 14.57Q322.77 14.18 323.15 13.61L323.15 13.61L323.15 13.61Q323.54 13.03 323.76 12.31L323.76 12.31L323.76 12.31Q323.97 11.58 323.97 10.75L323.97 10.75L323.97 10.75Q323.97 10.39 323.93 10.18L323.93 10.18L323.93 10.18Q323.89 9.97 323.79 9.81L323.79 9.81L323.79 9.81Q323.18 10.00 322.69 10.40L322.69 10.40L322.69 10.40Q322.21 10.81 321.86 11.26ZM336.48 14.87L336.48 14.87L336.48 14.87Q336.21 14.64 336.12 14.31L336.12 14.31L336.12 14.31Q336.03 13.97 336.03 13.73L336.03 13.73L336.03 13.73Q336.03 13.44 336.10 13.23L336.10 13.23L336.10 13.23Q336.04 13.23 335.85 13.45L335.85 13.45L335.85 13.45Q335.65 13.68 335.42 13.99L335.42 13.99L335.42 13.99Q335.19 14.29 334.96 14.59L334.96 14.59L334.96 14.59Q334.74 14.88 334.63 15.02L334.63 15.02L334.63 15.02Q334.45 15.22 334.28 15.33L334.28 15.33L334.28 15.33Q334.12 15.44 334.03 15.46L334.03 15.46L334.03 15.46Q333.80 15.44 333.56 15.37L333.56 15.37L333.56 15.37Q333.31 15.29 333.09 15.15L333.09 15.15L333.09 15.15Q332.88 15.01 332.72 14.81L332.72 14.81L332.72 14.81Q332.56 14.62 332.50 14.36L332.50 14.36L332.50 14.36Q332.50 13.97 332.52 13.72L332.52 13.72L332.52 13.72Q332.54 13.47 332.61 13.17L332.61 13.17L332.61 13.17Q332.74 12.64 332.98 11.97L332.98 11.97L332.98 11.97Q333.23 11.30 333.55 10.65L333.55 10.65L333.55 10.65Q333.87 10.00 334.27 9.43L334.27 9.43L334.27 9.43Q334.67 8.86 335.12 8.54L335.12 8.54L335.12 8.54Q335.24 8.54 335.41 8.56L335.41 8.56L335.41 8.56Q335.58 8.58 335.75 8.64L335.75 8.64L335.75 8.64Q335.93 8.69 336.09 8.77L336.09 8.77L336.09 8.77Q336.25 8.85 336.36 8.97L336.36 8.97L336.36 8.97Q336.24 9.11 335.73 9.91L335.73 9.91L335.73 9.91Q335.22 10.71 334.59 12.21L334.59 12.21L334.59 12.21Q334.52 12.36 334.42 12.66L334.42 12.66L334.42 12.66Q334.32 12.95 334.22 13.27L334.22 13.27L334.22 13.27Q334.12 13.59 334.06 13.90L334.06 13.90L334.06 13.90Q334.00 14.21 334.00 14.39L334.00 14.39L334.00 14.39Q334.00 14.50 334.03 14.56L334.03 14.56L334.03 14.56Q334.07 14.62 334.10 14.64L334.10 14.64L334.10 14.64Q334.31 14.56 334.63 14.18L334.63 14.18L334.63 14.18Q334.95 13.80 335.52 13.02L335.52 13.02L335.52 13.02Q335.66 12.82 335.85 12.57L335.85 12.57L335.85 12.57Q336.04 12.32 336.24 12.03L336.24 12.03L336.24 12.03Q336.43 11.75 336.61 11.44L336.61 11.44L336.61 11.44Q336.78 11.13 336.90 10.82L336.90 10.82L336.90 10.82Q336.95 10.65 337.04 10.42L337.04 10.42L337.04 10.42Q337.13 10.19 337.27 9.94L337.27 9.94L337.27 9.94Q337.40 9.69 337.57 9.43L337.57 9.43L337.57 9.43Q337.75 9.17 337.99 8.95L337.99 8.95L337.99 8.95Q338.17 8.95 338.38 8.99L338.38 8.99L338.38 8.99Q338.59 9.03 338.78 9.09L338.78 9.09L338.78 9.09Q338.97 9.16 339.11 9.23L339.11 9.23L339.11 9.23Q339.25 9.31 339.32 9.39L339.32 9.39L339.32 9.39Q339.07 10.01 338.76 10.61L338.76 10.61L338.76 10.61Q338.45 11.21 338.18 11.79L338.18 11.79L338.18 11.79Q337.92 12.38 337.74 12.95L337.74 12.95L337.74 12.95Q337.55 13.52 337.55 14.07L337.55 14.07L337.55 14.07Q337.55 14.36 337.60 14.58L337.60 14.58L337.60 14.58Q337.65 14.80 337.71 14.95L337.71 14.95L337.71 14.95Q337.76 15.09 337.81 15.19L337.81 15.19L337.81 15.19Q337.86 15.29 337.86 15.36L337.86 15.36L337.86 15.36Q337.86 15.37 337.83 15.40L337.83 15.40L337.83 15.40Q337.82 15.41 337.81 15.41L337.81 15.41L337.81 15.41Q337.71 15.41 337.55 15.37L337.55 15.37L337.55 15.37Q337.40 15.33 337.21 15.25L337.21 15.25L337.21 15.25Q337.02 15.18 336.83 15.08L336.83 15.08L336.83 15.08Q336.64 14.98 336.48 14.87ZM346.25 14.90L346.25 14.90L346.25 14.90Q346.32 14.49 346.49 13.82L346.49 13.82L346.49 13.82Q346.67 13.16 346.91 12.41L346.91 12.41L346.91 12.41Q347.14 11.66 347.41 10.91L347.41 10.91L347.41 10.91Q347.68 10.15 347.93 9.55L347.93 9.55L347.93 9.55Q348.11 9.11 348.25 8.87L348.25 8.87L348.25 8.87Q348.39 8.62 348.56 8.46L348.56 8.46L348.56 8.46Q348.75 8.48 348.96 8.55L348.96 8.55L348.96 8.55Q349.17 8.62 349.37 8.72L349.37 8.72L349.37 8.72Q349.57 8.82 349.72 8.93L349.72 8.93L349.72 8.93Q349.87 9.03 349.96 9.13L349.96 9.13L349.96 9.13Q349.58 9.58 349.29 10.15L349.29 10.15L349.29 10.15Q349.01 10.72 348.71 11.62L348.71 11.62L348.71 11.62Q349.47 10.95 350.05 10.33L350.05 10.33L350.05 10.33Q350.63 9.72 351.13 8.96L351.13 8.96L351.13 8.96Q351.22 8.89 351.43 8.89L351.43 8.89L351.43 8.89Q351.62 8.89 351.81 8.95L351.81 8.95L351.81 8.95Q351.99 9.02 352.06 9.13L352.06 9.13L352.06 9.13Q351.81 9.80 351.81 10.46L351.81 10.46L351.81 10.46Q351.81 11.07 351.99 11.38L351.99 11.38L351.99 11.38Q351.97 11.47 351.80 11.70L351.80 11.70L351.80 11.70Q351.62 11.94 351.41 12.15L351.41 12.15L351.41 12.15Q351.04 11.96 350.74 11.61L350.74 11.61L350.74 11.61Q350.45 11.27 350.31 10.86L350.31 10.86L350.31 10.86Q349.65 11.33 349.19 11.77L349.19 11.77L349.19 11.77Q348.73 12.21 348.40 12.75L348.40 12.75L348.40 12.75Q348.07 13.29 347.84 13.99L347.84 13.99L347.84 13.99Q347.61 14.69 347.40 15.65L347.40 15.65L347.40 15.65Q347.27 15.64 347.09 15.56L347.09 15.56L347.09 15.56Q346.92 15.48 346.74 15.37L346.74 15.37L346.74 15.37Q346.57 15.26 346.43 15.13L346.43 15.13L346.43 15.13Q346.29 15.01 346.25 14.90ZM363.83 9.60L363.83 9.60L363.83 9.60Q363.82 9.87 363.74 10.16L363.74 10.16L363.74 10.16Q363.66 10.44 363.55 10.68L363.55 10.68L363.55 10.68Q363.44 10.91 363.31 11.06L363.31 11.06L363.31 11.06Q363.19 11.21 363.08 11.21L363.08 11.21L363.08 11.21Q362.92 11.20 362.89 11.00L362.89 11.00L362.89 11.00Q362.89 10.96 362.93 10.87L362.93 10.87L362.93 10.87Q362.96 10.78 363.01 10.67L363.01 10.67L363.01 10.67Q363.05 10.56 363.08 10.44L363.08 10.44L363.08 10.44Q363.12 10.33 363.12 10.25L363.12 10.25L363.12 10.25Q363.12 10.05 363.03 9.92L363.03 9.92L363.03 9.92Q362.94 9.79 362.78 9.79L362.78 9.79L362.78 9.79Q362.22 9.79 361.93 10.49L361.93 10.49L361.93 10.49Q361.63 11.19 361.63 12.54L361.63 12.54L361.63 12.54Q361.63 12.68 361.65 12.71L361.65 12.71L361.65 12.71Q361.94 12.70 362.17 12.69L362.17 12.69L362.17 12.69Q362.40 12.68 362.63 12.68L362.63 12.68L362.63 12.68Q362.64 12.71 362.64 12.80L362.64 12.80L362.64 12.80Q362.64 12.92 362.59 12.98L362.59 12.98L362.59 12.98Q362.26 13.05 362.07 13.10L362.07 13.10L362.07 13.10Q361.89 13.15 361.79 13.19L361.79 13.19L361.79 13.19Q361.69 13.23 361.67 13.28L361.67 13.28L361.67 13.28Q361.65 13.33 361.65 13.41L361.65 13.41L361.65 13.41Q361.65 13.52 361.65 13.64L361.65 13.64L361.65 13.64Q361.66 13.75 361.66 13.92L361.66 13.92L361.66 13.92Q361.66 15.09 361.02 15.81L361.02 15.81L361.02 15.81Q360.39 16.52 359.25 16.63L359.25 16.63L359.25 16.63Q359.06 16.62 358.85 16.52L358.85 16.52L358.85 16.52Q358.64 16.42 358.45 16.27L358.45 16.27L358.45 16.27Q358.26 16.11 358.12 15.93L358.12 15.93L358.12 15.93Q357.98 15.74 357.92 15.54L357.92 15.54L357.92 15.54Q357.92 15.01 358.15 14.53L358.15 14.53L358.15 14.53Q358.37 14.04 358.76 13.67L358.76 13.67L358.76 13.67Q359.14 13.30 359.67 13.07L359.67 13.07L359.67 13.07Q360.19 12.84 360.81 12.80L360.81 12.80L360.81 12.80Q360.81 12.45 360.74 12.11L360.74 12.11L360.74 12.11Q360.67 11.77 360.59 11.46L360.59 11.46L360.59 11.46Q360.51 11.14 360.44 10.84L360.44 10.84L360.44 10.84Q360.37 10.54 360.37 10.25L360.37 10.25L360.37 10.25Q360.37 9.87 360.53 9.50L360.53 9.50L360.53 9.50Q360.68 9.13 360.93 8.81L360.93 8.81L360.93 8.81Q361.19 8.50 361.52 8.27L361.52 8.27L361.52 8.27Q361.86 8.05 362.22 7.97L362.22 7.97L362.22 7.97Q362.38 8.01 362.63 8.21L362.63 8.21L362.63 8.21Q362.89 8.41 363.15 8.67L363.15 8.67L363.15 8.67Q363.40 8.92 363.59 9.18L363.59 9.18L363.59 9.18Q363.79 9.44 363.83 9.60ZM359.21 15.99L359.21 15.99L359.21 15.99Q359.55 15.85 359.85 15.58L359.85 15.58L359.85 15.58Q360.15 15.32 360.37 14.98L360.37 14.98L360.37 14.98Q360.60 14.64 360.73 14.27L360.73 14.27L360.73 14.27Q360.86 13.89 360.86 13.52L360.86 13.52L360.86 13.52Q360.58 13.57 360.25 13.78L360.25 13.78L360.25 13.78Q359.91 14 359.62 14.30L359.62 14.30L359.62 14.30Q359.32 14.60 359.13 14.92L359.13 14.92L359.13 14.92Q358.93 15.25 358.93 15.48L358.93 15.48L358.93 15.48Q358.93 15.79 359.21 15.99ZM375.86 9.38L375.86 9.38L375.86 9.38Q375.80 10.25 375.55 10.87L375.55 10.87L375.55 10.87Q375.30 11.49 374.83 11.96L374.83 11.96L374.83 11.96Q374.36 12.43 373.69 12.81L373.69 12.81L373.69 12.81Q373.02 13.19 372.12 13.54L372.12 13.54L372.12 13.54Q372.12 13.62 372.11 13.71L372.11 13.71L372.11 13.71Q372.11 13.80 372.11 13.90L372.11 13.90L372.11 13.90Q372.11 14.08 372.13 14.28L372.13 14.28L372.13 14.28Q372.16 14.48 372.23 14.64L372.23 14.64L372.23 14.64Q372.30 14.81 372.43 14.92L372.43 14.92L372.43 14.92Q372.55 15.02 372.75 15.02L372.75 15.02L372.75 15.02Q373.13 15.02 373.49 14.85L373.49 14.85L373.49 14.85Q373.86 14.69 374.18 14.44L374.18 14.44L374.18 14.44Q374.51 14.20 374.80 13.91L374.80 13.91L374.80 13.91Q375.09 13.62 375.31 13.38L375.31 13.38L375.31 13.38Q375.45 13.51 375.55 13.62L375.55 13.62L375.55 13.62Q374.92 14.46 374.17 15.02L374.17 15.02L374.17 15.02Q373.42 15.57 372.75 15.72L372.75 15.72L372.75 15.72Q371.78 15.61 371.24 15.02L371.24 15.02L371.24 15.02Q370.71 14.42 370.71 13.58L370.71 13.58L370.71 13.58Q370.71 13.01 370.87 12.41L370.87 12.41L370.87 12.41Q371.03 11.82 371.31 11.26L371.31 11.26L371.31 11.26Q371.60 10.71 371.99 10.22L371.99 10.22L371.99 10.22Q372.37 9.73 372.81 9.37L372.81 9.37L372.81 9.37Q373.25 9.00 373.72 8.79L373.72 8.79L373.72 8.79Q374.19 8.58 374.65 8.58L374.65 8.58L374.65 8.58Q375.30 8.67 375.86 9.38ZM374.89 9.84L374.89 9.84L374.89 9.84Q374.51 9.90 374.11 10.15L374.11 10.15L374.11 10.15Q373.70 10.40 373.34 10.82L373.34 10.82L373.34 10.82Q372.99 11.24 372.69 11.80L372.69 11.80L372.69 11.80Q372.40 12.36 372.23 13.01L372.23 13.01L372.23 13.01Q373.35 12.45 374.09 11.63L374.09 11.63L374.09 11.63Q374.84 10.81 374.89 9.84ZM383.49 14.28L383.49 14.28L383.49 14.28Q383.49 13.66 383.78 12.55L383.78 12.55L383.78 12.55Q384.08 11.44 384.61 9.95L384.61 9.95L384.61 9.95Q385.48 7.59 386.24 6.01L386.24 6.01L386.24 6.01Q387.00 4.44 387.73 3.56L387.73 3.56L387.73 3.56Q387.90 3.58 388.14 3.70L388.14 3.70L388.14 3.70Q388.39 3.81 388.63 3.94L388.63 3.94L388.63 3.94Q388.86 4.07 389.05 4.21L389.05 4.21L389.05 4.21Q389.24 4.35 389.30 4.44L389.30 4.44L389.30 4.44Q388.21 5.73 387.38 7.21L387.38 7.21L387.38 7.21Q386.55 8.69 385.87 10.61L385.87 10.61L385.87 10.61Q385.28 12.26 384.97 13.59L384.97 13.59L384.97 13.59Q384.66 14.91 384.66 15.79L384.66 15.79L384.66 15.79Q384.66 16.03 384.66 16.09L384.66 16.09L384.66 16.09Q384.66 16.14 384.68 16.20L384.68 16.20L384.68 16.20Q384.48 16.17 384.34 16.10L384.34 16.10L384.34 16.10Q384.20 16.03 384.16 15.93L384.16 15.93L384.16 15.93Q384.13 15.86 384.01 15.73L384.01 15.73L384.01 15.73Q383.88 15.60 383.78 15.53L383.78 15.53L383.78 15.53Q383.66 15.44 383.57 15.09L383.57 15.09L383.57 15.09Q383.49 14.73 383.49 14.28ZM394.58 19.22L394.58 19.22L394.58 19.22Q394.23 19.08 394.16 18.69L394.16 18.69L394.16 18.69Q394.10 18.31 393.68 18.07L393.68 18.07L393.68 18.07Q393.79 17.36 393.93 16.63L393.93 16.63L393.93 16.63Q394.07 15.90 394.29 14.97L394.29 14.97L394.29 14.97Q394.51 14.04 394.83 12.80L394.83 12.80L394.83 12.80Q395.16 11.56 395.67 9.80L395.67 9.80L395.67 9.80Q395.21 9.80 394.94 9.81L394.94 9.81L394.94 9.81Q394.67 9.83 394.42 9.87L394.42 9.87L394.42 9.87Q394.37 9.81 394.33 9.72L394.33 9.72L394.33 9.72Q394.30 9.62 394.30 9.53L394.30 9.53L394.30 9.53Q394.44 9.48 394.87 9.39L394.87 9.39L394.87 9.39Q395.30 9.30 395.82 9.23L395.82 9.23L395.82 9.23Q396.16 8.16 396.59 7.32L396.59 7.32L396.59 7.32Q397.03 6.47 397.53 5.87L397.53 5.87L397.53 5.87Q398.03 5.26 398.59 4.94L398.59 4.94L398.59 4.94Q399.15 4.62 399.73 4.62L399.73 4.62L399.73 4.62Q399.90 4.62 400.05 4.64L400.05 4.64L400.05 4.64Q400.20 4.66 400.29 4.66L400.29 4.66L400.29 4.66Q400.41 4.56 400.62 4.49L400.62 4.49L400.62 4.49Q400.83 4.41 400.99 4.41L400.99 4.41L400.99 4.41Q401.16 4.41 401.42 4.59L401.42 4.59L401.42 4.59Q401.31 4.79 401.18 5.12L401.18 5.12L401.18 5.12Q401.06 5.46 400.97 5.78L400.97 5.78L400.97 5.78Q400.62 6.82 400.23 7.13L400.23 7.13L400.23 7.13Q400.08 7.13 400.06 6.72L400.06 6.72L400.06 6.72Q400.05 6.43 399.98 6.15L399.98 6.15L399.98 6.15Q399.92 6.02 399.90 5.92L399.90 5.92L399.90 5.92Q399.88 5.82 399.88 5.67L399.88 5.67L399.88 5.67Q399.88 5.59 399.90 5.47L399.90 5.47L399.90 5.47Q399.91 5.35 399.95 5.07L399.95 5.07L399.95 5.07Q399.71 5.07 399.43 5.36L399.43 5.36L399.43 5.36Q399.14 5.66 398.82 6.20L398.82 6.20L398.82 6.20Q398.51 6.73 398.19 7.48L398.19 7.48L398.19 7.48Q397.87 8.22 397.57 9.11L397.57 9.11L398.75 9.07L398.75 9.07Q398.82 9.14 398.87 9.39L398.87 9.39L398.87 9.39Q398.92 9.63 398.93 9.90L398.93 9.90L397.39 9.81L397.39 9.81Q396.86 11.40 396.40 12.84L396.40 12.84L396.40 12.84Q395.93 14.28 395.57 15.50L395.57 15.50L395.57 15.50Q395.21 16.72 394.95 17.68L394.95 17.68L394.95 17.68Q394.69 18.63 394.58 19.22ZM405.75 15.71L405.75 15.71L405.75 15.71Q405.52 15.68 405.28 15.52L405.28 15.52L405.28 15.52Q405.03 15.36 404.96 15.16L404.96 15.16L404.96 15.16Q404.96 14.99 405.01 14.73L405.01 14.73L405.01 14.73Q405.06 14.46 405.13 14.19L405.13 14.19L405.13 14.19Q405.20 13.92 405.27 13.67L405.27 13.67L405.27 13.67Q405.34 13.43 405.37 13.30L405.37 13.30L405.37 13.30Q405.54 13.30 405.80 13.38L405.80 13.38L405.80 13.38Q406.06 13.47 406.33 13.62L406.33 13.62L406.33 13.62Q406.60 13.76 406.85 13.95L406.85 13.95L406.85 13.95Q407.09 14.14 407.22 14.34L407.22 14.34L407.22 14.34Q407.09 14.62 406.90 14.87L406.90 14.87L406.90 14.87Q406.70 15.12 406.48 15.31L406.48 15.31L406.48 15.31Q406.27 15.50 406.07 15.60L406.07 15.60L406.07 15.60Q405.87 15.71 405.75 15.71Z"></path></g></svg>